<svg width="24" height="16" viewBox="0 0 24 16" fill="none" xmlns="http://www.w3.org/2000/svg">
<g clip-path="url(#clip0_1126_1175)">
<path d="M0 10.6276V13.7056C0 14.9818 1.04516 15.8827 2.32258 15.8827H21.6774C22.9548 15.8827 24 14.9818 24 13.7056V10.6276H0Z" fill="#3757A6"/>
<path d="M21.6774 0.11731H2.32258C1.04516 0.11731 0 1.01819 0 2.29444V5.37244H24V2.29444C24 1.01819 22.9548 0.11731 21.6774 0.11731Z" fill="#E73B36"/>
<path d="M24 5.37244H0V10.6276H24V5.37244Z" fill="#E9EFF4"/>
<path d="M21.5999 15.8827C22.8773 15.8827 23.9999 14.9818 23.9999 13.7056V10.6276H15.2515L21.5999 15.8827Z" fill="#234891"/>
<path d="M21.6776 0.11731H2.32275L8.74856 5.37244H24.0002V2.29444C24.0002 1.01819 22.955 0.11731 21.6776 0.11731Z" fill="#D82121"/>
<path d="M15.2901 10.6276H23.9998V5.37244H8.70947L15.2901 10.6276Z" fill="#CFDCE5"/>
<path d="M21.6776 0.11731H2.32275L20.2453 5.37244H24.0002V2.29444C24.0002 1.01819 22.955 0.11731 21.6776 0.11731Z" fill="#C10A0A"/>
<path d="M24.0001 6.42346V5.37244H20.0518L24.0001 6.42346Z" fill="#BCCED8"/>
<path d="M24 13.668C24 15.0193 22.9548 15.8827 21.6774 15.8827H2.32258C1.04516 15.8827 0 14.9067 0 13.6305" fill="#234891"/>
</g>
<defs>
<clipPath id="clip0_1126_1175">
<rect width="24" height="16" fill="white"/>
</clipPath>
</defs>
</svg>
