<svg width="32" height="32" viewBox="0 0 32 32" fill="none" xmlns="http://www.w3.org/2000/svg">
<path d="M29.3332 10.6667H2.6665V29.3333H29.3332V10.6667Z" fill="#F7F5FF" fill-opacity="0.615"/>
<path d="M15.9998 22C11.9465 22 8.6665 25.28 8.6665 29.3333C8.67984 29.3333 23.3332 29.3333 23.3332 29.3333C23.3332 25.28 20.0532 22 15.9998 22Z" fill="#FDFDFF" fill-opacity="0.931"/>
<path d="M15.9997 22C18.0247 22 19.6663 20.3584 19.6663 18.3333C19.6663 16.3083 18.0247 14.6667 15.9997 14.6667C13.9746 14.6667 12.333 16.3083 12.333 18.3333C12.333 20.3584 13.9746 22 15.9997 22Z" fill="#FDFDFF" fill-opacity="0.931"/>
<path d="M10.6665 2.66667H21.3332" stroke="#F7F5FF" stroke-opacity="0.615" stroke-width="1.2" stroke-miterlimit="10" stroke-linecap="round" stroke-linejoin="round"/>
<path d="M6.6665 6.66667H25.3332" stroke="#F7F5FF" stroke-opacity="0.615" stroke-width="1.2" stroke-miterlimit="10" stroke-linecap="round" stroke-linejoin="round"/>
</svg>
