<svg width="32" height="32" viewBox="0 0 32 32" fill="none" xmlns="http://www.w3.org/2000/svg">
<path d="M21.3333 16L16 6.66667L10.6667 16L4 6.66667L5.33333 24H26.6667L28 6.66667L21.3333 16Z" fill="#F0EEFF" fill-opacity="0.477"/>
<path fill-rule="evenodd" clip-rule="evenodd" d="M28.6665 28H3.33317C2.95984 28 2.6665 27.7067 2.6665 27.3333V24.6667C2.6665 24.2933 2.95984 24 3.33317 24H28.6665C29.0398 24 29.3332 24.2933 29.3332 24.6667V27.3333C29.3332 27.7067 29.0398 28 28.6665 28Z" fill="#FDFDFF" fill-opacity="0.931"/>
<path d="M3.99984 6.66667C4.73622 6.66667 5.33317 6.06971 5.33317 5.33333C5.33317 4.59695 4.73622 4 3.99984 4C3.26346 4 2.6665 4.59695 2.6665 5.33333C2.6665 6.06971 3.26346 6.66667 3.99984 6.66667Z" fill="#F7F5FF" fill-opacity="0.615"/>
<path d="M27.9998 6.66667C28.7362 6.66667 29.3332 6.06971 29.3332 5.33333C29.3332 4.59695 28.7362 4 27.9998 4C27.2635 4 26.6665 4.59695 26.6665 5.33333C26.6665 6.06971 27.2635 6.66667 27.9998 6.66667Z" fill="#F7F5FF" fill-opacity="0.615"/>
<path d="M15.9998 6.66667C16.7362 6.66667 17.3332 6.06971 17.3332 5.33333C17.3332 4.59695 16.7362 4 15.9998 4C15.2635 4 14.6665 4.59695 14.6665 5.33333C14.6665 6.06971 15.2635 6.66667 15.9998 6.66667Z" fill="#F7F5FF" fill-opacity="0.615"/>
</svg>
