<svg width="24" height="24" viewBox="0 0 24 24" fill="none" xmlns="http://www.w3.org/2000/svg">
<path d="M12 22C6.477 22 2 17.523 2 12C2 6.477 6.477 2 12 2C17.523 2 22 6.477 22 12C22 17.523 17.523 22 12 22ZM12 20C14.1217 20 16.1566 19.1571 17.6569 17.6569C19.1571 16.1566 20 14.1217 20 12C20 9.87827 19.1571 7.84344 17.6569 6.34315C16.1566 4.84285 14.1217 4 12 4C9.87827 4 7.84344 4.84285 6.34315 6.34315C4.84285 7.84344 4 9.87827 4 12C4 14.1217 4.84285 16.1566 6.34315 17.6569C7.84344 19.1571 9.87827 20 12 20ZM10.05 11H15V13H10.05C10.1366 13.4253 10.3325 13.8208 10.6184 14.1474C10.9042 14.4741 11.2702 14.7207 11.6803 14.8629C12.0903 15.0052 12.5304 15.0383 12.9571 14.9589C13.3839 14.8794 13.7826 14.6903 14.114 14.41L15.814 15.543C15.2298 16.1789 14.475 16.6333 13.6397 16.852C12.8043 17.0707 11.9237 17.0445 11.1029 16.7764C10.282 16.5083 9.55568 16.0097 9.01045 15.3401C8.46523 14.6705 8.12418 13.8581 8.028 13H7V11H8.027C8.12285 10.1414 8.46382 9.32861 9.00916 8.6586C9.55451 7.98859 10.2812 7.48972 11.1024 7.22157C11.9236 6.95342 12.8047 6.92732 13.6404 7.14639C14.476 7.36546 15.2309 7.82045 15.815 8.457L14.114 9.59C13.7826 9.30972 13.3839 9.12056 12.9571 9.04114C12.5304 8.96172 12.0903 8.99478 11.6803 9.13706C11.2702 9.27933 10.9042 9.52593 10.6184 9.85258C10.3325 10.1792 10.1366 10.5747 10.05 11Z" fill="#644FC1"/>
</svg>
