<svg width="32" height="32" viewBox="0 0 32 32" fill="none" xmlns="http://www.w3.org/2000/svg">
<path d="M15.9998 2.66667L2.6665 16L15.9998 29.3333L29.3332 16L15.9998 2.66667Z" fill="#EEECFF" fill-opacity="0.416" stroke="#F0EEFF" stroke-opacity="0.477" stroke-width="1.2" stroke-miterlimit="10" stroke-linecap="round" stroke-linejoin="round"/>
<path fill-rule="evenodd" clip-rule="evenodd" d="M12.5179 16.9226C12.2836 16.6883 11.9037 16.6883 11.6694 16.9226C11.4351 17.1569 11.4351 17.5368 11.6694 17.7711L15.71 21.8118C15.9444 22.0461 16.3243 22.0461 16.5586 21.8118L20.5992 17.7711C20.8335 17.5368 20.8335 17.1569 20.5992 16.9226C20.3649 16.6883 19.985 16.6883 19.7507 16.9226L16.7343 19.939L16.7343 9.93905C16.7343 9.60768 16.4657 9.33905 16.1343 9.33905C15.803 9.33905 15.5343 9.60768 15.5343 9.93905L15.5343 19.939L12.5179 16.9226Z" fill="#FDFDFF" fill-opacity="0.931"/>
</svg>
