<svg width="794" height="804" viewBox="0 0 794 804" fill="none" xmlns="http://www.w3.org/2000/svg">
<path d="M527.846 402C527.846 475.184 469.258 534.5 397 534.5C324.742 534.5 266.154 475.184 266.154 402C266.154 328.816 324.742 269.5 397 269.5C469.258 269.5 527.846 328.816 527.846 402Z" stroke="#DFE3E6"/>
<path d="M564.386 402C564.386 495.618 489.439 571.5 397.001 571.5C304.562 571.5 229.615 495.618 229.615 402C229.615 308.382 304.562 232.5 397.001 232.5C489.439 232.5 564.386 308.382 564.386 402Z" stroke="#DFE3E6"/>
<path d="M599.938 402C599.938 515.5 509.074 607.5 397 607.5C284.927 607.5 194.062 515.5 194.062 402C194.062 288.5 284.927 196.5 397 196.5C509.074 196.5 599.938 288.5 599.938 402Z" stroke="#E6E8EB"/>
<path d="M636.477 402C636.477 535.935 529.253 644.5 396.999 644.5C264.745 644.5 157.521 535.935 157.521 402C157.521 268.065 264.745 159.5 396.999 159.5C529.253 159.5 636.477 268.065 636.477 402Z" stroke="#E6E8EB"/>
<path d="M676.969 402C676.969 558.579 551.617 685.5 397.001 685.5C242.385 685.5 117.033 558.579 117.033 402C117.033 245.421 242.385 118.5 397.001 118.5C551.617 118.5 676.969 245.421 676.969 402Z" stroke="#ECEEF0"/>
<path d="M719.432 402C719.432 582.327 575.068 728.5 396.999 728.5C218.93 728.5 74.5664 582.327 74.5664 402C74.5664 221.673 218.93 75.5 396.999 75.5C575.068 75.5 719.432 221.673 719.432 402Z" stroke="#ECEEF0"/>
<path d="M758.935 402C758.935 604.418 596.885 768.5 397 768.5C197.114 768.5 35.0645 604.418 35.0645 402C35.0645 199.582 197.114 35.5 397 35.5C596.885 35.5 758.935 199.582 758.935 402Z" stroke="#F1F3F5"/>
<path d="M793.5 402C793.5 623.748 615.975 803.5 397 803.5C178.025 803.5 0.5 623.748 0.5 402C0.5 180.252 178.025 0.5 397 0.5C615.975 0.5 793.5 180.252 793.5 402Z" stroke="#F1F3F5"/>
</svg>
