<svg width="24" height="24" viewBox="0 0 24 24" fill="none" xmlns="http://www.w3.org/2000/svg">
<g clip-path="url(#clip0_1251_1350)">
<path d="M22 12C22 6.47717 17.5229 2.00002 12 2.00002C6.47715 2.00002 2 6.47717 2 12C2 16.9913 5.65686 21.1283 10.4375 21.8785V14.8906H7.89844V12H10.4375V9.7969C10.4375 7.29065 11.9304 5.90627 14.2146 5.90627C15.3087 5.90627 16.4531 6.10159 16.4531 6.10159V8.56252H15.1921C13.9499 8.56252 13.5625 9.33336 13.5625 10.1242V12H16.3359L15.8926 14.8906H13.5625V21.8785C18.3431 21.1283 22 16.9913 22 12Z" fill="#1877F2"/>
<path d="M15.8926 14.8906L16.3359 12H13.5625V10.1242C13.5625 9.33334 13.9499 8.5625 15.1921 8.5625H16.4531V6.10156C16.4531 6.10156 15.3087 5.90625 14.2146 5.90625C11.9304 5.90625 10.4375 7.29062 10.4375 9.79688V12H7.89844V14.8906H10.4375V21.8785C10.9466 21.9584 11.4684 22 12 22C12.5316 22 13.0534 21.9584 13.5625 21.8785V14.8906H15.8926Z" fill="white"/>
</g>
<defs>
<clipPath id="clip0_1251_1350">
<rect width="20" height="20" fill="white" transform="translate(2 2)"/>
</clipPath>
</defs>
</svg>
