<svg width="24" height="24" viewBox="0 0 24 24" fill="none" xmlns="http://www.w3.org/2000/svg">
<g clip-path="url(#clip0_1251_1329)">
<path d="M18.287 18.2873H15.6286V14.124C15.6286 13.1312 15.6109 11.8532 14.2459 11.8532C12.8613 11.8532 12.6494 12.9349 12.6494 14.0517V18.287H9.99097V9.72562H12.5431V10.8956H12.5788C12.8342 10.4589 13.2033 10.0997 13.6467 9.85614C14.0902 9.61261 14.5913 9.4939 15.0969 9.51267C17.7914 9.51267 18.2882 11.285 18.2882 13.5906L18.287 18.2873ZM6.99135 8.55535C6.68623 8.5554 6.38793 8.46498 6.1342 8.2955C5.88047 8.12603 5.6827 7.88512 5.56588 7.60324C5.44907 7.32137 5.41845 7.01118 5.47793 6.71191C5.5374 6.41263 5.68429 6.13772 5.9 5.92192C6.11572 5.70613 6.39058 5.55915 6.68984 5.49957C6.98909 5.43999 7.29928 5.47048 7.5812 5.5872C7.86312 5.70391 8.10409 5.90161 8.27366 6.15528C8.44322 6.40895 8.53376 6.70721 8.53381 7.01233C8.53385 7.21493 8.49398 7.41554 8.41648 7.60273C8.33898 7.78992 8.22539 7.96001 8.08216 8.10329C7.93893 8.24657 7.76887 8.36024 7.58171 8.43781C7.39455 8.51537 7.19395 8.55531 6.99135 8.55535ZM8.32058 18.2873H5.65935V9.72562H8.32058V18.2873ZM19.6124 3.0011H4.32348C3.97647 2.99718 3.64208 3.1312 3.39382 3.37369C3.14556 3.61618 3.00375 3.94732 2.99951 4.29433V19.6467C3.0036 19.9939 3.14533 20.3252 3.39358 20.568C3.64183 20.8107 3.9763 20.945 4.32348 20.9413H19.6124C19.9603 20.9456 20.2957 20.8118 20.5449 20.569C20.7941 20.3263 20.9368 19.9945 20.9416 19.6467V4.29322C20.9367 3.94552 20.7939 3.61401 20.5446 3.37152C20.2954 3.12904 19.9601 2.99541 19.6124 2.99999" fill="#0A66C2"/>
</g>
<defs>
<clipPath id="clip0_1251_1329">
<rect width="18" height="18" fill="white" transform="translate(3 3)"/>
</clipPath>
</defs>
</svg>
