<svg width="24" height="24" viewBox="0 0 24 24" fill="none" xmlns="http://www.w3.org/2000/svg">
<g clip-path="url(#clip0_1251_1324)">
<path d="M12 22C17.5228 22 22 17.5228 22 12C22 6.47715 17.5228 2 12 2C6.47715 2 2 6.47715 2 12C2 17.5228 6.47715 22 12 22Z" fill="#1B9DF0"/>
<path d="M10.1699 17.275C14.6049 17.275 17.0299 13.6 17.0299 10.415C17.0299 10.31 17.0299 10.205 17.0249 10.105C17.4949 9.76498 17.9049 9.33998 18.2299 8.85498C17.7999 9.04498 17.3349 9.17498 16.8449 9.23498C17.3449 8.93498 17.7249 8.46498 17.9049 7.89998C17.4399 8.17498 16.9249 8.37498 16.3749 8.48498C15.9349 8.01498 15.3099 7.72498 14.6149 7.72498C13.2849 7.72498 12.2049 8.80498 12.2049 10.135C12.2049 10.325 12.2249 10.51 12.2699 10.685C10.2649 10.585 8.48986 9.62498 7.29986 8.16498C7.09486 8.51998 6.97486 8.93498 6.97486 9.37498C6.97486 10.21 7.39986 10.95 8.04986 11.38C7.65486 11.37 7.28486 11.26 6.95986 11.08C6.95986 11.09 6.95986 11.1 6.95986 11.11C6.95986 12.28 7.78986 13.25 8.89486 13.475C8.69486 13.53 8.47986 13.56 8.25986 13.56C8.10486 13.56 7.95486 13.545 7.80486 13.515C8.10986 14.475 8.99986 15.17 10.0549 15.19C9.22986 15.835 8.18986 16.22 7.05986 16.22C6.86486 16.22 6.67486 16.21 6.48486 16.185C7.53986 16.875 8.80986 17.275 10.1699 17.275Z" fill="white"/>
</g>
<defs>
<clipPath id="clip0_1251_1324">
<rect width="20" height="20" fill="white" transform="translate(2 2)"/>
</clipPath>
</defs>
</svg>
