<svg width="24" height="24" viewBox="0 0 24 24" fill="none" xmlns="http://www.w3.org/2000/svg">
<path fill-rule="evenodd" clip-rule="evenodd" d="M18.3123 5.74519C16.6972 4.13012 14.5479 3.23834 12.2588 3.23834C7.54103 3.23834 3.70678 7.0767 3.70268 11.7904C3.70268 13.2986 4.0972 14.7698 4.84514 16.0644L3.63281 20.4986L8.1698 19.3109C9.41911 19.9931 10.8246 20.3507 12.2588 20.3507H12.2629C16.9766 20.3507 20.815 16.5123 20.8191 11.7986C20.8191 9.50958 19.9273 7.36026 18.3123 5.74519ZM12.2629 18.9041C10.9849 18.9041 9.73144 18.5589 8.6424 17.9137L8.3835 17.7616L5.69172 18.4685L6.41089 15.8466L6.2424 15.5794C5.53144 14.4493 5.15336 13.1383 5.15336 11.7945C5.15336 7.87396 8.34651 4.68492 12.2671 4.68492C14.1657 4.68492 15.9534 5.42464 17.2931 6.76848C18.6369 8.11232 19.3766 9.89999 19.3725 11.7986C19.3684 15.7151 16.1794 18.9041 12.2629 18.9041ZM16.1629 13.5822C15.9493 13.4753 14.8972 12.9575 14.704 12.8877C14.5068 12.8178 14.3671 12.7808 14.2232 12.9945C14.0794 13.2082 13.6725 13.689 13.5451 13.8329C13.4219 13.9767 13.2945 13.9931 13.0808 13.8863C12.8671 13.7794 12.1766 13.5534 11.3629 12.826C10.726 12.2589 10.2986 11.5603 10.1753 11.3466C10.052 11.1329 10.1629 11.0178 10.2698 10.9109C10.3643 10.8164 10.4835 10.6603 10.5903 10.537C10.6972 10.4137 10.7342 10.3233 10.804 10.1794C10.8739 10.0356 10.841 9.91232 10.7876 9.80547C10.7342 9.69862 10.3068 8.64656 10.1301 8.21916C9.95747 7.8041 9.78076 7.85752 9.64925 7.85341C9.52596 7.84519 9.38213 7.84519 9.23829 7.84519C9.09446 7.84519 8.86432 7.89862 8.66706 8.11231C8.4698 8.32601 7.91911 8.84382 7.91911 9.89588C7.91911 10.9479 8.6835 11.963 8.79035 12.1068C8.8972 12.2507 10.2986 14.4082 12.4438 15.3329C12.9534 15.5548 13.352 15.6863 13.6643 15.7849C14.178 15.9493 14.6424 15.9246 15.0123 15.8712C15.4232 15.8096 16.278 15.3534 16.4547 14.8562C16.6314 14.3589 16.6314 13.9274 16.578 13.8411C16.5164 13.7425 16.3766 13.689 16.1629 13.5822Z" fill="#30A46C"/>
</svg>
