<svg width="64" height="64" viewBox="0 0 64 64" fill="none" xmlns="http://www.w3.org/2000/svg">
<rect width="64" height="64" rx="4" fill="#FFEFEF"/>
<path d="M30.6667 16.7238C31.1067 16.6852 31.5507 16.6665 32.0001 16.6665C40.4681 16.6665 47.3334 23.5318 47.3334 31.9998C47.3334 32.4492 47.3147 32.8932 47.2761 33.3332H45.2681C44.5987 40.0705 38.9134 45.3332 32.0001 45.3332C24.6361 45.3332 18.6667 39.3638 18.6667 31.9998C18.6667 25.0865 23.9294 19.4012 30.6667 18.7332V16.7225V16.7238ZM30.6667 33.3332V21.4158C27.977 21.7581 25.5186 23.1117 23.791 25.2015C22.0634 27.2913 21.1965 29.9605 21.3662 32.6665C21.536 35.3726 22.7299 37.9125 24.7051 39.77C26.6803 41.6275 29.2887 42.6631 32.0001 42.6665C34.5982 42.6665 37.1071 41.7183 39.0557 39.9998C41.0044 38.2814 42.259 35.9109 42.5841 33.3332H30.6667ZM44.5974 30.6665C44.2917 27.7837 43.0068 25.0929 40.9569 23.043C38.907 20.9931 36.2162 19.7082 33.3334 19.4025V30.6665H44.5974Z" fill="#CD2B31"/>
</svg>
