<svg width="64" height="64" viewBox="0 0 64 64" fill="none" xmlns="http://www.w3.org/2000/svg">
<rect width="64" height="64" rx="4" fill="#FFEFEF"/>
<path d="M40.7941 25.8175L34.897 31.4198V49.3108C34.897 49.9958 35.4521 50.5513 36.1374 50.5513C36.8217 50.5513 37.3776 49.9958 37.3776 49.3108L37.3772 32.4838L42.5021 27.6144C42.9985 27.1429 43.0183 26.3584 42.5469 25.8616C42.0758 25.3656 41.2909 25.3454 40.7941 25.8173L40.7941 25.8175Z" fill="#CD2B31"/>
<path d="M19.9456 25.862C19.4741 26.3588 19.4947 27.1434 19.9912 27.6148L25.116 32.4842L25.1156 49.3102C25.1156 49.9952 25.6707 50.5506 26.3558 50.5506C27.0409 50.5506 27.596 49.9952 27.596 49.3102L27.5964 31.4192L21.6992 25.8169C21.202 25.3454 20.4171 25.3656 19.9456 25.862L19.9456 25.862Z" fill="#CD2B31"/>
<path d="M33.0631 36.5446C33.0631 37.5336 32.2612 38.3355 31.2723 38.3355C30.2829 38.3355 29.4814 37.5336 29.4814 36.5446C29.4814 35.5553 30.283 34.7534 31.2723 34.7534C32.2612 34.7534 33.0631 35.5553 33.0631 36.5446Z" fill="#CD2B31"/>
<path d="M33.0631 44.306C33.0631 45.2953 32.2612 46.0968 31.2723 46.0968C30.2829 46.0968 29.4814 45.2953 29.4814 44.306C29.4814 43.317 30.283 42.5151 31.2723 42.5151C32.2612 42.5151 33.0631 43.3171 33.0631 44.306Z" fill="#CD2B31"/>
<path d="M33.0631 52.0662C33.0631 53.0551 32.2612 53.857 31.2723 53.857C30.2829 53.857 29.4814 53.0551 29.4814 52.0662C29.4814 51.0773 30.283 50.2754 31.2723 50.2754C32.2612 50.2754 33.0631 51.0773 33.0631 52.0662Z" fill="#CD2B31"/>
<path d="M33.0631 28.783C33.0631 29.7719 32.2612 30.5738 31.2723 30.5738C30.2829 30.5738 29.4814 29.7719 29.4814 28.783C29.4814 27.7937 30.283 26.9922 31.2723 26.9922C32.2612 26.9922 33.0631 27.7937 33.0631 28.783" fill="#CD2B31"/>
<path d="M38.169 24.2361C38.169 25.2251 37.3671 26.027 36.3782 26.027C35.3889 26.027 34.5874 25.225 34.5874 24.2361C34.5874 23.2468 35.3889 22.4453 36.3782 22.4453C37.3672 22.4453 38.169 23.2468 38.169 24.2361Z" fill="#CD2B31"/>
<path d="M40.4419 12.8699C40.4419 13.8592 39.64 14.6607 38.6511 14.6607C37.6618 14.6607 36.8599 13.8592 36.8599 12.8699C36.8599 11.881 37.6618 11.0791 38.6511 11.0791C39.64 11.0791 40.4419 11.881 40.4419 12.8699" fill="#CD2B31"/>
<path d="M45.609 19.0701C45.609 20.0594 44.8071 20.8609 43.8182 20.8609C42.8293 20.8609 42.0273 20.0594 42.0273 19.0701C42.0273 18.0812 42.8293 17.2793 43.8182 17.2793C44.8071 17.2793 45.609 18.0812 45.609 19.0701Z" fill="#CD2B31"/>
<path d="M22.4112 15.488C22.4112 16.4769 21.6092 17.2788 20.6199 17.2788C19.631 17.2788 18.8291 16.4769 18.8291 15.488C18.8291 14.4987 19.631 13.6968 20.6199 13.6968C21.6092 13.6968 22.4112 14.4987 22.4112 15.488" fill="#CD2B31"/>
<path d="M27.7149 23.9612C27.7149 24.9501 26.9134 25.752 25.9241 25.752C24.9352 25.752 24.1333 24.9501 24.1333 23.9612C24.1333 22.9718 24.9352 22.1699 25.9241 22.1699C26.9134 22.1699 27.7149 22.9718 27.7149 23.9612Z" fill="#CD2B31"/>
<path d="M31.2464 23.5922L36.117 18.7205C36.6015 18.2367 36.6015 17.4514 36.117 16.9677C35.6332 16.4831 34.8475 16.4831 34.3634 16.9677L32.4849 18.8449V12.8012C32.4849 12.1162 31.9298 11.561 31.2456 11.561C30.5605 11.561 30.0051 12.1161 30.0051 12.8012V18.8449L28.1282 16.9677C27.6437 16.4831 26.8588 16.4831 26.3746 16.9677C25.8901 17.4514 25.8901 18.2368 26.3746 18.7205L31.2464 23.5922Z" fill="#CD2B31"/>
</svg>
