<svg width="64" height="64" viewBox="0 0 64 64" fill="none" xmlns="http://www.w3.org/2000/svg">
<rect width="64" height="64" rx="4" fill="#FFEFEF"/>
<path d="M39.4894 19.6016V22.7948L34.5016 28.7075C34.2813 28.9686 33.9537 29.119 33.6029 29.119C33.2522 29.119 32.9249 28.9692 32.704 28.7075L27.7168 22.7948V19.6016H39.4894Z" fill="#CD2B31"/>
<path d="M43.4834 23.7872V16.5798C43.4834 16.1345 43.1072 15.7739 42.6426 15.7739H24.5635C24.099 15.7739 23.7227 16.1346 23.7227 16.5798V23.7872C23.7227 23.9725 23.7893 24.1524 23.9116 24.2957L29.0554 30.3555L27.5518 32.1064C26.64 31.7477 25.6434 31.5467 24.5982 31.5467C20.2893 31.547 16.7847 34.9066 16.7847 39.0355C16.7847 43.1648 20.2894 46.5243 24.5982 46.5243C26.4966 46.5243 28.238 45.8708 29.5936 44.7874H42.6431C43.1077 44.7874 43.4839 44.4268 43.4839 43.9816L43.4837 36.8537C43.4837 36.6667 43.4159 36.4857 43.2918 36.3415L38.1518 30.3554L43.2957 24.2956C43.4171 24.152 43.4837 23.9724 43.4837 23.7871L43.4834 23.7872ZM18.8867 39.0354C18.8867 36.0171 21.4488 33.5614 24.5977 33.5614C27.7464 33.5614 30.3087 36.0171 30.3087 39.0354C30.3087 42.0537 27.7466 44.5093 24.5977 44.5093C21.4488 44.5093 18.8867 42.0537 18.8867 39.0354ZM41.3812 23.3569L35.652 30.1065C35.5259 30.2552 35.5262 30.4688 35.6538 30.6169L41.3815 37.2872V42.7724L31.3584 42.7727C32.0238 41.6714 32.4112 40.3972 32.4112 39.0356C32.4112 36.6385 31.2252 34.5061 29.391 33.1343L31.5525 30.6174C31.6795 30.4696 31.6803 30.2559 31.5542 30.107L25.8248 23.3568V17.7878H41.3812L41.3812 23.3569Z" fill="#CD2B31"/>
<path d="M26.8044 40.9687H23.722C23.1413 40.9687 22.6709 40.5178 22.6709 39.9612V36.6036C22.6709 36.0471 23.1413 35.5962 23.722 35.5962C24.3027 35.5962 24.7731 36.0471 24.7731 36.6036V38.9538H26.8044C27.3851 38.9538 27.8555 39.4047 27.8555 39.9612C27.8555 40.5178 27.3851 40.9687 26.8044 40.9687Z" fill="#CD2B31"/>
</svg>
