<svg width="64" height="64" viewBox="0 0 64 64" fill="none" xmlns="http://www.w3.org/2000/svg">
<rect width="64" height="64" rx="4" fill="#FFEFEF"/>
<path d="M33.3334 42.5332C34.839 42.2253 36.1921 41.407 37.1639 40.2166C38.1357 39.0261 38.6666 37.5366 38.6667 35.9998V31.9998C38.6685 31.0823 38.4801 30.1743 38.1134 29.3332H25.8867C25.52 30.1743 25.3316 31.0823 25.3334 31.9998V35.9998C25.3336 37.5366 25.8645 39.0261 26.8363 40.2166C27.8081 41.407 29.1612 42.2253 30.6667 42.5332V34.6665H33.3334V42.5332ZM23.3814 39.5865C22.9083 38.45 22.6654 37.2309 22.6667 35.9998H18.6667V33.3332H22.6667V31.9998C22.6667 31.1425 22.7827 30.3132 22.9987 29.5252L20.0481 27.8212L21.3814 25.5118L24.0747 27.0665C24.1598 26.9309 24.2482 26.7975 24.3401 26.6665H39.6601C39.7521 26.7972 39.8401 26.9318 39.9254 27.0665L42.6187 25.5118L43.9521 27.8212L41.0014 29.5252C41.2174 30.3118 41.3334 31.1425 41.3334 31.9998V33.3332H45.3334V35.9998H41.3334C41.3334 37.2705 41.0801 38.4825 40.6187 39.5865L43.9521 41.5118L42.6187 43.8212L39.2507 41.8772C38.3766 42.9577 37.2717 43.8289 36.0171 44.4269C34.7625 45.0249 33.3899 45.3345 32.0001 45.3332C30.6102 45.3345 29.2377 45.0249 27.9831 44.4269C26.7285 43.8289 25.6236 42.9577 24.7494 41.8772L21.3814 43.8212L20.0481 41.5118L23.3814 39.5878V39.5865ZM26.6667 23.9998C26.6667 22.5853 27.2287 21.2288 28.2288 20.2286C29.229 19.2284 30.5856 18.6665 32.0001 18.6665C33.4146 18.6665 34.7711 19.2284 35.7713 20.2286C36.7715 21.2288 37.3334 22.5853 37.3334 23.9998H26.6667Z" fill="#CD2B31"/>
</svg>
