<svg width="64" height="64" viewBox="0 0 64 64" fill="none" xmlns="http://www.w3.org/2000/svg">
<rect width="64" height="64" rx="4" fill="#FFEFEF"/>
<path d="M33.3333 31.9998H37.3333L32 37.3332L26.6667 31.9998H30.6667V26.6665H33.3333V31.9998ZM36 21.3332H22.6667V42.6665H41.3333V26.6665H36V21.3332ZM20 19.9892C20 19.2585 20.596 18.6665 21.332 18.6665H37.3333L44 25.3332V43.9905C44.0012 44.1656 43.968 44.3392 43.9021 44.5015C43.8362 44.6637 43.739 44.8114 43.6161 44.9361C43.4931 45.0607 43.3468 45.16 43.1855 45.2281C43.0242 45.2962 42.8511 45.3319 42.676 45.3332H21.324C20.9738 45.3307 20.6387 45.1906 20.391 44.9432C20.1432 44.6957 20.0028 44.3607 20 44.0105V19.9892Z" fill="#CD2B31"/>
</svg>
