<svg width="64" height="64" viewBox="0 0 64 64" fill="none" xmlns="http://www.w3.org/2000/svg">
<rect width="64" height="64" rx="4" fill="#FFEFEF"/>
<path d="M44.0001 20C44.3537 20 44.6928 20.1405 44.9429 20.3905C45.1929 20.6406 45.3334 20.9797 45.3334 21.3333V42.6667C45.3334 43.0203 45.1929 43.3594 44.9429 43.6095C44.6928 43.8595 44.3537 44 44.0001 44H20.0001C19.6465 44 19.3073 43.8595 19.0573 43.6095C18.8072 43.3594 18.6667 43.0203 18.6667 42.6667V21.3333C18.6667 20.9797 18.8072 20.6406 19.0573 20.3905C19.3073 20.1405 19.6465 20 20.0001 20H44.0001ZM36.0001 22.6667H21.3334V41.3333H36.0001V22.6667ZM42.6667 22.6667H38.6667V41.3333H42.6667V22.6667Z" fill="#CD2B31"/>
</svg>
