<svg width="64" height="64" viewBox="0 0 64 64" fill="none" xmlns="http://www.w3.org/2000/svg">
<rect width="64" height="64" rx="4" fill="#FFEFEF"/>
<path d="M22.6667 32.6667C22.6667 33.084 23.2813 33.8107 24.7067 34.524C26.552 35.4467 29.1693 36 32 36C34.8307 36 37.448 35.4467 39.2933 34.524C40.7187 33.8107 41.3333 33.084 41.3333 32.6667V29.772C39.1333 31.132 35.7693 32 32 32C28.2307 32 24.8667 31.1307 22.6667 29.772V32.6667ZM41.3333 36.4387C39.1333 37.7987 35.7693 38.6667 32 38.6667C28.2307 38.6667 24.8667 37.7973 22.6667 36.4387V39.3333C22.6667 39.7507 23.2813 40.4773 24.7067 41.1907C26.552 42.1133 29.1693 42.6667 32 42.6667C34.8307 42.6667 37.448 42.1133 39.2933 41.1907C40.7187 40.4773 41.3333 39.7507 41.3333 39.3333V36.4387ZM20 39.3333V26C20 22.6867 25.3733 20 32 20C38.6267 20 44 22.6867 44 26V39.3333C44 42.6467 38.6267 45.3333 32 45.3333C25.3733 45.3333 20 42.6467 20 39.3333ZM32 29.3333C34.8307 29.3333 37.448 28.78 39.2933 27.8573C40.7187 27.144 41.3333 26.4173 41.3333 26C41.3333 25.5827 40.7187 24.856 39.2933 24.1427C37.448 23.22 34.8307 22.6667 32 22.6667C29.1693 22.6667 26.552 23.22 24.7067 24.1427C23.2813 24.856 22.6667 25.5827 22.6667 26C22.6667 26.4173 23.2813 27.144 24.7067 27.8573C26.552 28.78 29.1693 29.3333 32 29.3333Z" fill="#CD2B31"/>
</svg>
