<svg width="64" height="64" viewBox="0 0 64 64" fill="none" xmlns="http://www.w3.org/2000/svg">
<rect width="64" height="64" rx="4" fill="#FFEFEF"/>
<path d="M32.0001 33.3332C34.2094 33.3332 36.0001 35.1238 36.0001 37.3332C36.0001 38.4665 35.5294 39.4878 34.7734 40.2158L32.2267 42.6665H36.0001V45.3332H28.0001V43.0345L32.9241 38.2945C33.1774 38.0505 33.3334 37.7105 33.3334 37.3332C33.3334 36.5972 32.7361 35.9998 32.0001 35.9998C31.2641 35.9998 30.6667 36.5972 30.6667 37.3332H28.0001C28.0001 35.1238 29.7907 33.3332 32.0001 33.3332ZM40.0001 33.3332V38.6665H42.6667V33.3332H45.3334V45.3332H42.6667V41.3332H37.3334V33.3332H40.0001ZM21.3334 31.9998C21.3334 35.3692 22.8947 38.3732 25.3334 40.3278V43.5492C21.3481 41.2438 18.6667 36.9358 18.6667 31.9998H21.3334ZM32.0001 18.6665C38.9134 18.6665 44.5987 23.9292 45.2667 30.6665H42.5841C41.9281 25.4052 37.4401 21.3332 32.0001 21.3332C28.3334 21.3332 25.0987 23.1825 23.1801 25.9998H26.6667V28.6665H18.6667V20.6665H21.3334V23.9998C23.7654 20.7598 27.6387 18.6665 32.0001 18.6665Z" fill="#CD2B31"/>
</svg>
