<svg width="64" height="64" viewBox="0 0 64 64" fill="none" xmlns="http://www.w3.org/2000/svg">
<rect width="64" height="64" rx="4" fill="#FFEFEF"/>
<path d="M45.3334 25.3333H46.6667V38.6667H45.3334V42.6667C45.3334 43.0203 45.1929 43.3594 44.9429 43.6095C44.6928 43.8595 44.3537 44 44.0001 44H20.0001C19.6465 44 19.3073 43.8595 19.0573 43.6095C18.8072 43.3594 18.6667 43.0203 18.6667 42.6667V21.3333C18.6667 20.9797 18.8072 20.6406 19.0573 20.3905C19.3073 20.1405 19.6465 20 20.0001 20H44.0001C44.3537 20 44.6928 20.1405 44.9429 20.3905C45.1929 20.6406 45.3334 20.9797 45.3334 21.3333V25.3333ZM42.6667 38.6667H34.6667C32.8986 38.6667 31.2029 37.9643 29.9527 36.714C28.7025 35.4638 28.0001 33.7681 28.0001 32C28.0001 30.2319 28.7025 28.5362 29.9527 27.286C31.2029 26.0357 32.8986 25.3333 34.6667 25.3333H42.6667V22.6667H21.3334V41.3333H42.6667V38.6667ZM44.0001 36V28H34.6667C33.6059 28 32.5885 28.4214 31.8383 29.1716C31.0882 29.9217 30.6667 30.9391 30.6667 32C30.6667 33.0609 31.0882 34.0783 31.8383 34.8284C32.5885 35.5786 33.6059 36 34.6667 36H44.0001ZM34.6667 30.6667H38.6667V33.3333H34.6667V30.6667Z" fill="#CD2B31"/>
</svg>
