<svg width="64" height="64" viewBox="0 0 64 64" fill="none" xmlns="http://www.w3.org/2000/svg">
<rect width="64" height="64" rx="4" fill="#FFEFEF"/>
<path d="M25.3334 22.6668V18.6668C25.3334 18.3132 25.4739 17.9741 25.7239 17.724C25.974 17.474 26.3131 17.3335 26.6667 17.3335H37.3334C37.687 17.3335 38.0262 17.474 38.2762 17.724C38.5263 17.9741 38.6667 18.3132 38.6667 18.6668V22.6668H44.0001C44.3537 22.6668 44.6928 22.8073 44.9429 23.0574C45.1929 23.3074 45.3334 23.6465 45.3334 24.0002V42.6668C45.3334 43.0204 45.1929 43.3596 44.9429 43.6096C44.6928 43.8597 44.3537 44.0002 44.0001 44.0002H20.0001C19.6465 44.0002 19.3073 43.8597 19.0573 43.6096C18.8072 43.3596 18.6667 43.0204 18.6667 42.6668V24.0002C18.6667 23.6465 18.8072 23.3074 19.0573 23.0574C19.3073 22.8073 19.6465 22.6668 20.0001 22.6668H25.3334ZM21.3334 37.3335V41.3335H42.6667V37.3335H21.3334ZM21.3334 34.6668H42.6667V25.3335H21.3334V34.6668ZM28.0001 20.0002V22.6668H36.0001V20.0002H28.0001ZM30.6667 30.6668H33.3334V33.3335H30.6667V30.6668Z" fill="#CD2B31"/>
</svg>
