<svg width="64" height="64" viewBox="0 0 64 64" fill="none" xmlns="http://www.w3.org/2000/svg">
<rect width="64" height="64" rx="4" fill="#FFEFEF"/>
<path d="M21.3334 37.3332V42.6665H26.6667V45.3332H18.6667V37.3332H21.3334ZM45.3334 37.3332V45.3332H37.3334V42.6665H42.6667V37.3332H45.3334ZM26.0001 25.3332C26.0001 26.9245 26.6322 28.4506 27.7574 29.5758C28.8827 30.701 30.4088 31.3332 32.0001 31.3332C33.5914 31.3332 35.1175 30.701 36.2427 29.5758C37.3679 28.4506 38.0001 26.9245 38.0001 25.3332H40.6667C40.667 26.919 40.2322 28.4746 39.4096 29.8304C38.587 31.1862 37.4081 32.2903 36.0014 33.0225L36.0001 41.3332H28.0001V33.0238C26.5929 32.2917 25.4137 31.1875 24.5908 29.8314C23.7679 28.4753 23.333 26.9194 23.3334 25.3332H26.0001ZM32.0001 22.6665C32.8841 22.6665 33.732 23.0177 34.3571 23.6428C34.9822 24.2679 35.3334 25.1158 35.3334 25.9998C35.3334 26.8839 34.9822 27.7317 34.3571 28.3569C33.732 28.982 32.8841 29.3332 32.0001 29.3332C31.116 29.3332 30.2682 28.982 29.6431 28.3569C29.0179 27.7317 28.6667 26.8839 28.6667 25.9998C28.6667 25.1158 29.0179 24.2679 29.6431 23.6428C30.2682 23.0177 31.116 22.6665 32.0001 22.6665ZM26.6667 18.6665V21.3332L21.3334 21.3318V26.6665H18.6667V18.6665H26.6667ZM45.3334 18.6665V26.6665H42.6667V21.3332H37.3334V18.6665H45.3334Z" fill="#CD2B31"/>
</svg>
