<svg width="1624" height="212" viewBox="0 0 1624 212" fill="none" xmlns="http://www.w3.org/2000/svg">
<path fill-rule="evenodd" clip-rule="evenodd" d="M1436.19 212H1463.16C1442.94 177.822 1431.45 138.644 1431.45 97C1431.45 62.4926 1439.34 29.6789 1453.55 0L1427.55 0C1414.58 30.0188 1407.45 62.7483 1407.45 97C1407.45 138.23 1417.78 177.254 1436.19 212ZM1435.06 212C1416.73 177.238 1406.45 138.222 1406.45 97C1406.45 62.7522 1413.54 30.0275 1426.45 0H201.896C214.806 30.0275 221.9 62.7522 221.9 97C221.9 138.222 211.623 177.238 193.296 212H1435.06ZM1496.31 212H1464.33C1444.01 177.844 1432.45 138.655 1432.45 97C1432.45 62.487 1440.38 29.6669 1454.66 0H1485.16C1469.08 29.1362 1460.03 62.0957 1460.03 97.0002C1460.03 139.305 1473.33 178.754 1496.31 212ZM1497.53 212H1533.89C1506.86 180.316 1490.74 140.388 1490.74 96.9999C1490.74 61.4708 1501.55 28.2621 1520.31 0H1486.3C1470.14 29.1179 1461.03 62.087 1461.03 97.0002C1461.03 139.323 1474.42 178.788 1497.53 212ZM1573.27 212H1535.21C1507.99 180.377 1491.74 140.419 1491.74 96.9999C1491.74 61.4556 1502.63 28.231 1521.51 0H1555.77C1533.35 26.8823 1520.03 60.5109 1520.03 96.9999C1520.03 142.176 1540.45 182.968 1573.27 212ZM1574.78 212H1608C1610.14 212 1612.18 211.58 1614.04 210.819C1573.39 186.746 1546.46 144.764 1546.46 97C1546.46 58.956 1563.54 24.5798 1591.04 0H1557.08C1534.48 26.8241 1521.03 60.4814 1521.03 96.9999C1521.03 142.242 1541.67 183.094 1574.78 212ZM1624 196C1624 202.265 1620.4 207.689 1615.15 210.315C1574.44 186.463 1547.46 144.598 1547.46 97C1547.46 58.8911 1564.75 24.4566 1592.55 0H1608C1613.6 0 1618.53 2.88019 1621.39 7.24083C1591.53 27.5802 1572.18 60.2122 1572.18 97.0001C1572.18 134.848 1592.67 168.298 1624 188.488V196ZM1624 187.298V156.438C1608.24 140.849 1598.61 119.959 1598.61 96.9999C1598.61 74.0411 1608.24 53.1512 1624 37.5616V16C1624 13.1242 1623.24 10.4257 1621.91 8.09354C1592.33 28.2673 1573.18 60.6037 1573.18 97.0001C1573.18 134.245 1593.23 167.239 1624 187.298ZM200.804 0H174.801C189.01 29.6789 196.898 62.4926 196.898 97C196.898 138.644 185.41 177.822 165.187 212H192.161C210.572 177.254 220.9 138.23 220.9 97C220.9 62.7483 213.772 30.0188 200.804 0ZM1599.61 96.9999C1599.61 119.316 1608.84 139.682 1624 155.023V38.977C1608.84 54.3181 1599.61 74.6841 1599.61 96.9999ZM143.193 0H173.688C187.968 29.6669 195.898 62.487 195.898 97C195.898 138.655 184.346 177.844 164.021 212H132.043C155.018 178.754 168.324 139.305 168.324 97.0002C168.324 62.0957 159.266 29.1362 143.193 0ZM142.047 0H108.046C126.802 28.2621 137.608 61.4708 137.608 96.9999C137.608 140.388 121.492 180.316 94.4637 212H130.823C153.933 178.788 167.324 139.323 167.324 97.0002C167.324 62.087 158.211 29.1179 142.047 0ZM72.5833 0H106.841C125.723 28.231 136.608 61.4556 136.608 96.9999C136.608 140.419 120.365 180.377 93.1448 212H55.0847C87.9008 182.968 108.32 142.176 108.32 96.9999C108.32 60.5109 94.9986 26.8823 72.5833 0ZM71.2763 0H37.3102C64.8071 24.5798 81.8887 58.956 81.8887 97C81.8887 145.342 54.3084 187.761 12.8247 211.685C13.851 211.892 14.9128 212 16 212H53.5702C86.686 183.094 107.32 142.242 107.32 96.9999C107.32 60.4814 93.8763 26.8241 71.2763 0ZM16 0H35.8034C63.5959 24.4566 80.8887 58.8911 80.8887 97C80.8887 145.284 53.1285 187.67 11.4247 211.336C4.81759 209.368 0 203.247 0 196V191.165C33.7767 171.339 56.1739 136.574 56.1739 97.0001C56.1739 59.0396 35.5658 25.5042 4.07384 5.33362C7.00356 2.06013 11.2612 0 16 0ZM3.42637 6.10429C1.28042 8.8272 0 12.2641 0 16V33.5269C18.3148 49.4487 29.7419 71.9975 29.7419 96.9999C29.7419 122.002 18.3148 144.551 0 160.473V190.007C33.2157 170.292 55.1739 135.974 55.1739 97.0001C55.1739 59.3825 34.7174 26.1019 3.42637 6.10429ZM28.7419 96.9999C28.7419 121.377 17.7287 143.427 0 159.143V34.8572C17.7287 50.5726 28.7419 72.623 28.7419 96.9999Z" fill="#32275F"/>
</svg>
