<svg width="2440" height="2606" viewBox="0 0 2440 2606" fill="none" xmlns="http://www.w3.org/2000/svg">
<line x1="-4.96306e-08" y1="877.5" x2="2440" y2="877.5" stroke="#E0E4E0"/>
<line x1="-4.96306e-08" y1="1200.5" x2="2440" y2="1200.5" stroke="#E0E4E0"/>
<line x1="-4.96306e-08" y1="1530.5" x2="2440" y2="1530.5" stroke="#E0E4E0"/>
<line x1="-4.96306e-08" y1="554.5" x2="2440" y2="554.5" stroke="#E0E4E0"/>
<line x1="-4.96306e-08" y1="231.5" x2="2440" y2="231.5" stroke="#E0E4E0"/>
<line x1="882.5" y1="-5.58516e-08" x2="882.5" y2="2598" stroke="#E0E4E0"/>
<line x1="1204.5" y1="1" x2="1204.5" y2="2599" stroke="#E0E4E0"/>
<line x1="1848.5" y1="-2.18557e-08" x2="1848.5" y2="2606" stroke="#E0E4E0"/>
<line x1="1526.5" y1="-2.8872e-08" x2="1526.5" y2="2581" stroke="#E0E4E0"/>
<line x1="914.5" y1="-5.58516e-08" x2="914.5" y2="2598" stroke="#E0E4E0"/>
<line x1="1236.5" y1="-5.58516e-08" x2="1236.5" y2="2598" stroke="#E0E4E0"/>
<line x1="591.5" y1="-2.18557e-08" x2="591.5" y2="2590" stroke="#E0E4E0"/>
<line x1="1558.5" y1="-2.8872e-08" x2="1558.5" y2="2581" stroke="#E0E4E0"/>
<line x1="2440" y1="910.5" y2="910.5" stroke="#E0E4E0"/>
<line x1="2440" y1="1233.5" y2="1233.5" stroke="#E0E4E0"/>
<line x1="2440" y1="1563.5" y2="1563.5" stroke="#E0E4E0"/>
<line x1="2440" y1="587.5" y2="587.5" stroke="#E0E4E0"/>
<line x1="2440" y1="264.5" y2="264.5" stroke="#E0E4E0"/>
</svg>
