<svg width="804" height="804" viewBox="0 0 804 804" fill="none" xmlns="http://www.w3.org/2000/svg">
<circle cx="402" cy="402" r="132.5" stroke="#E2E2E2"/>
<circle r="11.5" transform="matrix(-1 0 0 1 198 272)" stroke="#96C7F2"/>
<circle r="11.5" transform="matrix(-1 0 0 1 402 158)" stroke="#DFAFE3"/>
<circle r="11.5" transform="matrix(-1 0 0 1 604 272)" stroke="#EDADC8"/>
<circle r="17.5" transform="matrix(-1 0 0 1 198 272)" stroke="#B7D9F8"/>
<circle r="17.5" transform="matrix(-1 0 0 1 402 158)" stroke="#EBC8ED"/>
<circle r="17.5" transform="matrix(-1 0 0 1 604 272)" stroke="#F4C6DB"/>
<circle r="23.5" transform="matrix(-1 0 0 1 198 272)" stroke="#E1F0FF"/>
<circle r="23.5" transform="matrix(-1 0 0 1 402 158)" stroke="#F9E5F9"/>
<circle r="23.5" transform="matrix(-1 0 0 1 604 272)" stroke="#F9D8E7"/>
<circle cx="402" cy="402" r="169.5" stroke="#E2E2E2"/>
<circle cx="402" cy="402" r="205.5" stroke="#E8E8E8"/>
<circle cx="402" cy="402" r="242.5" stroke="#E8E8E8"/>
<circle cx="402" cy="402" r="283.5" stroke="#EDEDED"/>
<circle cx="402" cy="402" r="326.5" stroke="#EDEDED"/>
<circle cx="402" cy="402" r="366.5" stroke="#F3F3F3"/>
<circle cx="402" cy="402" r="401.5" stroke="#F3F3F3"/>
<circle cx="198" cy="272" r="6" fill="#5EB0EF"/>
<circle cx="402" cy="158" r="6" fill="#CF91D8"/>
<circle cx="604" cy="272" r="6" fill="#E58FB1"/>
<rect x="632" y="230" width="82" height="30" rx="8" fill="#FEEFF6"/>
<rect x="108" y="228" width="66" height="30" rx="8" fill="#EDF6FF"/>
<rect x="351" y="98" width="101" height="30" rx="8" fill="#FCEFFC"/>
<path d="M127.458 248H129.614V240.188H132.596V238.2H124.476V240.188H127.458V248ZM136.11 248.168C137.468 248.168 138.476 247.636 139.176 246.768L137.958 245.69C137.37 246.236 136.852 246.46 136.138 246.46C135.186 246.46 134.514 245.956 134.304 244.99H139.526C139.54 244.794 139.554 244.598 139.554 244.43C139.554 242.302 138.406 240.356 135.9 240.356C133.716 240.356 132.19 242.12 132.19 244.262V244.29C132.19 246.586 133.856 248.168 136.11 248.168ZM134.276 243.66C134.444 242.694 135.018 242.064 135.9 242.064C136.796 242.064 137.356 242.708 137.482 243.66H134.276ZM144.682 248.168C146.18 248.168 147.02 247.594 147.748 246.796L146.502 245.536C145.984 246.026 145.494 246.334 144.78 246.334C143.618 246.334 142.876 245.41 142.876 244.262V244.234C142.876 243.128 143.632 242.19 144.696 242.19C145.452 242.19 145.928 242.512 146.404 243.016L147.706 241.616C147.006 240.832 146.124 240.356 144.71 240.356C142.414 240.356 140.776 242.12 140.776 244.262V244.29C140.776 246.432 142.428 248.168 144.682 248.168ZM149.138 248H151.266V243.814C151.266 242.806 151.784 242.288 152.596 242.288C153.408 242.288 153.884 242.806 153.884 243.814V248H156.012V243.142C156.012 241.42 155.074 240.356 153.464 240.356C152.386 240.356 151.756 240.93 151.266 241.56V237.78H149.138V248Z" fill="#006ADC"/>
<path d="M650.175 250H653.997C657.077 250 659.205 247.858 659.205 245.1V245.072C659.205 242.314 657.077 240.2 653.997 240.2H650.175V250ZM653.997 242.146C655.761 242.146 656.951 243.364 656.951 245.1V245.128C656.951 246.864 655.761 248.054 653.997 248.054H652.331V242.146H653.997ZM664.458 250.168C665.816 250.168 666.824 249.636 667.524 248.768L666.306 247.69C665.718 248.236 665.2 248.46 664.486 248.46C663.534 248.46 662.862 247.956 662.652 246.99H667.874C667.888 246.794 667.902 246.598 667.902 246.43C667.902 244.302 666.754 242.356 664.248 242.356C662.064 242.356 660.538 244.12 660.538 246.262V246.29C660.538 248.586 662.204 250.168 664.458 250.168ZM662.624 245.66C662.792 244.694 663.366 244.064 664.248 244.064C665.144 244.064 665.704 244.708 665.83 245.66H662.624ZM672.12 250.14C673.744 250.14 674.99 249.384 674.99 247.718V247.69C674.99 246.318 673.772 245.814 672.722 245.464C671.91 245.184 671.196 244.988 671.196 244.568V244.54C671.196 244.246 671.462 244.022 671.98 244.022C672.526 244.022 673.268 244.288 674.01 244.722L674.822 243.252C674.01 242.706 672.974 242.384 672.022 242.384C670.51 242.384 669.278 243.238 669.278 244.764V244.792C669.278 246.248 670.468 246.738 671.518 247.046C672.344 247.298 673.072 247.452 673.072 247.914V247.942C673.072 248.278 672.792 248.502 672.176 248.502C671.476 248.502 670.622 248.194 669.81 247.606L668.9 249.006C669.894 249.79 671.07 250.14 672.12 250.14ZM676.557 241.67H678.797V239.78H676.557V241.67ZM676.613 250H678.741V242.496H676.613V250ZM684.1 252.268C685.556 252.268 686.634 251.96 687.334 251.26C687.964 250.63 688.286 249.65 688.286 248.306V242.496H686.158V243.476C685.584 242.846 684.898 242.356 683.736 242.356C682.014 242.356 680.404 243.616 680.404 245.856V245.884C680.404 248.11 681.986 249.384 683.736 249.384C684.87 249.384 685.556 248.922 686.186 248.166V248.53C686.186 249.874 685.5 250.574 684.044 250.574C683.05 250.574 682.28 250.322 681.51 249.888L680.782 251.484C681.734 251.988 682.882 252.268 684.1 252.268ZM684.352 247.62C683.316 247.62 682.532 246.92 682.532 245.884V245.856C682.532 244.834 683.316 244.12 684.352 244.12C685.388 244.12 686.186 244.834 686.186 245.856V245.884C686.186 246.906 685.388 247.62 684.352 247.62ZM690.187 250H692.315V245.814C692.315 244.806 692.833 244.288 693.645 244.288C694.457 244.288 694.933 244.806 694.933 245.814V250H697.061V245.142C697.061 243.42 696.123 242.356 694.513 242.356C693.435 242.356 692.805 242.93 692.315 243.56V242.496H690.187V250Z" fill="#D31E66"/>
<path d="M370.766 118.07H372.642L374.854 111.658L377.066 118.07H378.942L382.288 108.2H380.034L378.004 114.836L375.806 108.172H373.958L371.76 114.836L369.73 108.2H367.42L370.766 118.07ZM386.427 118.168C388.765 118.168 390.501 116.418 390.501 114.262V114.234C390.501 112.078 388.779 110.356 386.455 110.356C384.117 110.356 382.381 112.106 382.381 114.262V114.29C382.381 116.446 384.103 118.168 386.427 118.168ZM386.455 116.334C385.279 116.334 384.481 115.368 384.481 114.262V114.234C384.481 113.128 385.209 112.19 386.427 112.19C387.603 112.19 388.401 113.156 388.401 114.262V114.29C388.401 115.396 387.673 116.334 386.455 116.334ZM392.042 118H394.17V115.228C394.17 113.436 395.038 112.582 396.452 112.582H396.564V110.356C395.304 110.3 394.604 110.972 394.17 112.008V110.496H392.042V118ZM397.893 118H400.021V115.718L400.777 114.92L402.695 118H405.159L402.205 113.45L405.061 110.496H402.513L400.021 113.226V107.78H397.893V118ZM406.543 118H408.671V112.316H410.365V110.58H408.643V110.286C408.643 109.726 408.923 109.474 409.413 109.474C409.777 109.474 410.071 109.544 410.379 109.656V107.892C409.987 107.766 409.539 107.682 408.867 107.682C408.111 107.682 407.537 107.878 407.145 108.27C406.753 108.662 406.543 109.264 406.543 110.09V110.566H405.661V112.316H406.543V118ZM411.625 118H413.753V107.78H411.625V118ZM419.431 118.168C421.769 118.168 423.505 116.418 423.505 114.262V114.234C423.505 112.078 421.783 110.356 419.459 110.356C417.121 110.356 415.385 112.106 415.385 114.262V114.29C415.385 116.446 417.107 118.168 419.431 118.168ZM419.459 116.334C418.283 116.334 417.485 115.368 417.485 114.262V114.234C417.485 113.128 418.213 112.19 419.431 112.19C420.607 112.19 421.405 113.156 421.405 114.262V114.29C421.405 115.396 420.677 116.334 419.459 116.334ZM426.384 118.056H428.288L429.758 113.45L431.2 118.056H433.118L435.456 110.496H433.342L432.11 115.06L430.682 110.468H428.848L427.434 115.046L426.23 110.496H424.074L426.384 118.056Z" fill="#9C2BAD"/>
<path d="M187.49 252.483L195.568 268.567C195.687 268.804 195.464 269.067 195.211 268.988L178.003 263.632C177.741 263.551 177.717 263.191 177.964 263.074L184.51 259.991C184.587 259.955 184.644 259.889 184.669 259.809L186.935 252.528C187.015 252.271 187.369 252.242 187.49 252.483Z" fill="#006ADC"/>
<path fill-rule="evenodd" clip-rule="evenodd" d="M194.91 268.371L187.265 253.15L185.146 259.957C185.08 260.171 184.926 260.347 184.723 260.443L184.51 259.991L184.723 260.443L178.642 263.307L194.91 268.371ZM196.015 268.343C196.332 268.973 195.736 269.675 195.062 269.466L177.854 264.109C177.157 263.892 177.091 262.933 177.751 262.622L184.217 259.576L186.457 252.38C186.671 251.692 187.613 251.615 187.936 252.258L187.489 252.483L187.936 252.258L196.015 268.343Z" fill="#006ADC"/>
<path d="M613.439 255.25L605.36 271.334C605.242 271.571 605.465 271.834 605.718 271.756L622.926 266.399C623.187 266.318 623.212 265.958 622.965 265.841L616.418 262.758C616.342 262.722 616.285 262.656 616.26 262.576L613.994 255.295C613.913 255.038 613.56 255.009 613.439 255.25Z" fill="#D31E66"/>
<path fill-rule="evenodd" clip-rule="evenodd" d="M606.019 271.138L613.664 255.917L615.783 262.724C615.849 262.938 616.003 263.115 616.206 263.21L616.419 262.758L616.206 263.21L622.287 266.074L606.019 271.138ZM604.914 271.11C604.597 271.741 605.193 272.443 605.867 272.233L623.075 266.876C623.772 266.66 623.838 265.7 623.178 265.389L616.711 262.343L614.471 255.147C614.257 254.459 613.316 254.382 612.993 255.025L613.439 255.25L612.993 255.025L604.914 271.11Z" fill="#D31E66"/>
<path d="M394.451 138.846L401.941 155.213C402.051 155.453 402.396 155.444 402.493 155.198L409.084 138.424C409.184 138.169 408.919 137.924 408.673 138.044L402.171 141.221C402.096 141.257 402.008 141.261 401.93 141.23L394.834 138.442C394.582 138.343 394.339 138.6 394.451 138.846Z" fill="#9C2BAD"/>
<path fill-rule="evenodd" clip-rule="evenodd" d="M402.2 154.577L395.112 139.088L401.747 141.696C401.956 141.778 402.19 141.768 402.391 141.67L402.172 141.221L402.391 141.67L408.431 138.719L402.2 154.577ZM401.486 155.421C401.78 156.063 402.7 156.037 402.958 155.381L409.55 138.607C409.816 137.928 409.109 137.275 408.454 137.595L402.031 140.733L395.017 137.976C394.347 137.713 393.697 138.399 393.996 139.054L394.451 138.846L393.996 139.054L401.486 155.421Z" fill="#9C2BAD"/>
</svg>
