<svg width="804" height="804" viewBox="0 0 804 804" fill="none" xmlns="http://www.w3.org/2000/svg">
<circle cx="402" cy="402" r="242.5" stroke="#E8E8E8"/>
<circle cx="402" cy="402" r="132.5" stroke="#E2E2E2"/>
<circle r="11.5" transform="matrix(-1 0 0 1 202 274.769)" stroke="#96C7F2"/>
<circle r="11.5" transform="matrix(-1 0 0 1 402 158)" stroke="#DFAFE3"/>
<circle r="17.5" transform="matrix(-1 0 0 1 202 274.769)" stroke="#B7D9F8"/>
<circle r="17.5" transform="matrix(-1 0 0 1 402 158)" stroke="#EBC8ED"/>
<circle r="23.5" transform="matrix(-1 0 0 1 202 274.769)" stroke="#E1F0FF"/>
<circle r="23.5" transform="matrix(-1 0 0 1 402 158)" stroke="#F9E5F9"/>
<circle cx="402" cy="402" r="169.5" stroke="#E2E2E2"/>
<circle cx="402" cy="402" r="205.5" stroke="#E8E8E8"/>
<circle cx="402" cy="402" r="283.5" stroke="#EDEDED"/>
<circle cx="402" cy="402" r="326.5" stroke="#EDEDED"/>
<circle cx="402" cy="402" r="366.5" stroke="#F3F3F3"/>
<circle cx="402" cy="402" r="401.5" stroke="#F3F3F3"/>
<circle r="11.5" transform="matrix(-1 0 0 1 597 273)" stroke="#EDADC8"/>
<circle r="17.5" transform="matrix(-1 0 0 1 597 273)" stroke="#F4C6DB"/>
<circle r="23.5" transform="matrix(-1 0 0 1 597 272)" stroke="#F9D8E7"/>
<circle cx="202" cy="274.769" r="6" fill="#5EB0EF"/>
<circle cx="402" cy="158" r="6" fill="#CF91D8"/>
<rect x="613" y="236" width="74" height="23" rx="5" fill="#FEEFF6" stroke="#F4C6DB" stroke-width="2"/>
<rect x="125" y="236" width="60" height="23" rx="5" fill="#EDF6FF" stroke="#CEE7FE" stroke-width="2"/>
<rect x="350" y="107" width="104" height="23" rx="5" fill="#FCEFFC" stroke="#F3D9F4" stroke-width="2"/>
<path d="M141.132 252H142.608V244.968H145.284V243.6H138.456V244.968H141.132V252ZM146.694 252H152.982V250.68H148.17V248.436H152.382V247.104H148.17V244.92H152.922V243.6H146.694V252ZM158.513 252.144C160.085 252.144 161.045 251.568 161.921 250.656L160.973 249.696C160.253 250.368 159.593 250.776 158.561 250.776C156.953 250.776 155.789 249.444 155.789 247.8V247.776C155.789 246.132 156.965 244.824 158.549 244.824C159.521 244.824 160.229 245.232 160.913 245.856L161.861 244.764C161.057 243.996 160.121 243.456 158.561 243.456C156.029 243.456 154.241 245.412 154.241 247.8V247.824C154.241 250.236 156.053 252.144 158.513 252.144ZM163.365 252H164.841V248.46H168.849V252H170.325V243.6H168.849V247.092H164.841V243.6H163.365V252Z" fill="#006ADC"/>
<path d="M627.08 252H630.212C632.852 252 634.676 250.164 634.676 247.8V247.776C634.676 245.412 632.852 243.6 630.212 243.6H627.08V252ZM630.212 244.944C631.976 244.944 633.128 246.156 633.128 247.8V247.824C633.128 249.468 631.976 250.656 630.212 250.656H628.556V244.944H630.212ZM636.347 252H642.635V250.68H637.823V248.436H642.035V247.104H637.823V244.92H642.575V243.6H636.347V252ZM647.206 252.12C648.97 252.12 650.206 251.184 650.206 249.612V249.588C650.206 248.196 649.294 247.56 647.518 247.128C645.898 246.744 645.514 246.456 645.514 245.808V245.784C645.514 245.232 646.018 244.788 646.882 244.788C647.65 244.788 648.406 245.088 649.162 245.652L649.954 244.536C649.102 243.852 648.13 243.48 646.906 243.48C645.238 243.48 644.038 244.476 644.038 245.916V245.94C644.038 247.488 645.046 248.016 646.834 248.448C648.394 248.808 648.73 249.132 648.73 249.732V249.756C648.73 250.38 648.154 250.812 647.242 250.812C646.21 250.812 645.394 250.416 644.59 249.72L643.702 250.776C644.71 251.676 645.922 252.12 647.206 252.12ZM651.906 252H653.382V243.6H651.906V252ZM659.494 252.144C660.982 252.144 662.17 251.544 662.998 250.836V247.308H659.422V248.604H661.57V250.164C661.054 250.548 660.334 250.8 659.542 250.8C657.826 250.8 656.686 249.528 656.686 247.8V247.776C656.686 246.168 657.862 244.824 659.41 244.824C660.478 244.824 661.114 245.172 661.762 245.712L662.698 244.596C661.834 243.864 660.934 243.456 659.47 243.456C656.938 243.456 655.138 245.448 655.138 247.8V247.824C655.138 250.272 656.866 252.144 659.494 252.144ZM664.8 252H666.252V246.024L670.884 252H672.12V243.6H670.668V249.408L666.168 243.6H664.8V252Z" fill="#D31E66"/>
<path d="M366.348 123.06H367.632L369.696 117.024L371.76 123.06H373.044L375.96 114.6H374.412L372.408 120.828L370.344 114.576H369.096L367.032 120.828L365.028 114.6H363.432L366.348 123.06ZM380.894 123.144C383.474 123.144 385.298 121.164 385.298 118.8V118.776C385.298 116.412 383.498 114.456 380.918 114.456C378.338 114.456 376.514 116.436 376.514 118.8V118.824C376.514 121.188 378.314 123.144 380.894 123.144ZM380.918 121.776C379.25 121.776 378.062 120.432 378.062 118.8V118.776C378.062 117.144 379.226 115.824 380.894 115.824C382.562 115.824 383.75 117.168 383.75 118.8V118.824C383.75 120.456 382.586 121.776 380.918 121.776ZM386.961 123H388.437V120.072H390.285L392.349 123H394.101L391.833 119.82C392.997 119.484 393.825 118.656 393.825 117.276V117.252C393.825 116.52 393.573 115.896 393.129 115.44C392.589 114.912 391.761 114.6 390.705 114.6H386.961V123ZM388.437 118.764V115.944H390.585C391.677 115.944 392.325 116.436 392.325 117.336V117.36C392.325 118.212 391.653 118.764 390.597 118.764H388.437ZM395.513 123H396.989V120.564L398.297 119.22L401.165 123H402.965L399.305 118.212L402.809 114.6H400.973L396.989 118.824V114.6H395.513V123ZM404.1 123H405.576V119.58H409.812V118.236H405.576V115.944H410.352V114.6H404.1V123ZM411.855 123H417.747V121.656H413.331V114.6H411.855V123ZM422.645 123.144C425.225 123.144 427.049 121.164 427.049 118.8V118.776C427.049 116.412 425.249 114.456 422.669 114.456C420.089 114.456 418.265 116.436 418.265 118.8V118.824C418.265 121.188 420.065 123.144 422.645 123.144ZM422.669 121.776C421.001 121.776 419.813 120.432 419.813 118.8V118.776C419.813 117.144 420.977 115.824 422.645 115.824C424.313 115.824 425.501 117.168 425.501 118.8V118.824C425.501 120.456 424.337 121.776 422.669 121.776ZM430.512 123.06H431.796L433.86 117.024L435.924 123.06H437.208L440.124 114.6H438.576L436.572 120.828L434.508 114.576H433.26L431.196 120.828L429.192 114.6H427.596L430.512 123.06Z" fill="#9C2BAD"/>
<path d="M191.49 255.252L199.568 271.336C199.687 271.573 199.464 271.836 199.211 271.757L182.003 266.401C181.741 266.32 181.717 265.96 181.964 265.843L188.51 262.76C188.587 262.724 188.644 262.658 188.669 262.577L190.935 255.297C191.015 255.04 191.369 255.011 191.49 255.252Z" fill="#006ADC"/>
<path fill-rule="evenodd" clip-rule="evenodd" d="M198.91 271.14L191.265 255.919L189.146 262.726C189.08 262.94 188.926 263.116 188.723 263.212L188.51 262.76L188.723 263.212L182.642 266.076L198.91 271.14ZM200.015 271.112C200.332 271.742 199.736 272.445 199.062 272.235L181.854 266.878C181.157 266.662 181.091 265.702 181.751 265.391L188.217 262.345L190.457 255.149C190.671 254.461 191.613 254.384 191.936 255.027L191.489 255.252L191.936 255.027L200.015 271.112Z" fill="#006ADC"/>
<path d="M394.452 138.845L401.942 155.212C402.052 155.453 402.397 155.444 402.494 155.197L409.085 138.423C409.185 138.168 408.92 137.924 408.674 138.044L402.172 141.22C402.097 141.257 402.009 141.261 401.931 141.23L394.835 138.441C394.583 138.342 394.34 138.6 394.452 138.845Z" fill="#9C2BAD"/>
<path fill-rule="evenodd" clip-rule="evenodd" d="M402.2 154.576L395.112 139.088L401.747 141.695C401.956 141.777 402.19 141.768 402.391 141.67L402.172 141.22L402.391 141.67L408.431 138.719L402.2 154.576ZM401.486 155.421C401.78 156.062 402.7 156.037 402.958 155.38L409.55 138.606C409.816 137.927 409.109 137.274 408.454 137.595L402.031 140.732L395.017 137.976C394.347 137.713 393.697 138.399 393.996 139.053L394.451 138.845L393.996 139.053L401.486 155.421Z" fill="#9C2BAD"/>
<circle cx="597" cy="271.999" r="6" fill="#E58FB1"/>
<path d="M606.438 255.25L598.359 271.334C598.241 271.571 598.464 271.834 598.717 271.755L615.925 266.399C616.186 266.317 616.211 265.957 615.964 265.841L609.417 262.758C609.341 262.722 609.284 262.656 609.259 262.575L606.993 255.295C606.912 255.037 606.559 255.008 606.438 255.25Z" fill="#D31E66"/>
<path fill-rule="evenodd" clip-rule="evenodd" d="M599.018 271.138L606.663 255.917L608.782 262.724C608.848 262.938 609.002 263.114 609.205 263.21L609.418 262.758L609.205 263.21L615.286 266.074L599.018 271.138ZM597.913 271.11C597.596 271.74 598.192 272.442 598.866 272.233L616.074 266.876C616.771 266.659 616.837 265.699 616.177 265.389L609.71 262.343L607.47 255.146C607.256 254.459 606.315 254.382 605.992 255.025L606.438 255.25L605.992 255.025L597.913 271.11Z" fill="#D31E66"/>
</svg>
