<svg width="804" height="804" viewBox="0 0 804 804" fill="none" xmlns="http://www.w3.org/2000/svg">
<circle cx="402" cy="402" r="132.5" stroke="#E2E2E2"/>
<circle r="11.5" transform="matrix(-1 0 0 1 200 294)" stroke="#96C7F2"/>
<circle r="11.5" transform="matrix(-1 0 0 1 402 158)" stroke="#DFAFE3"/>
<circle r="11.5" transform="matrix(-1 0 0 1 596 274)" stroke="#EDADC8"/>
<circle r="17.5" transform="matrix(-1 0 0 1 200 294)" stroke="#B7D9F8"/>
<circle r="17.5" transform="matrix(-1 0 0 1 402 158)" stroke="#EBC8ED"/>
<circle r="17.5" transform="matrix(-1 0 0 1 596 274)" stroke="#F4C6DB"/>
<circle r="23.5" transform="matrix(-1 0 0 1 200 294)" stroke="#E1F0FF"/>
<circle r="23.5" transform="matrix(-1 0 0 1 402 158)" stroke="#F9E5F9"/>
<circle r="23.5" transform="matrix(-1 0 0 1 596 274)" stroke="#F9D8E7"/>
<circle cx="402" cy="402" r="169.5" stroke="#E2E2E2"/>
<circle cx="402" cy="402" r="205.5" stroke="#E8E8E8"/>
<circle cx="402" cy="402" r="242.5" stroke="#E8E8E8"/>
<circle cx="402" cy="402" r="283.5" stroke="#EDEDED"/>
<circle cx="402" cy="402" r="326.5" stroke="#EDEDED"/>
<circle cx="402" cy="402" r="366.5" stroke="#F3F3F3"/>
<circle cx="402" cy="402" r="401.5" stroke="#F3F3F3"/>
<circle cx="200" cy="294" r="6" fill="#5EB0EF"/>
<circle cx="402" cy="158" r="6" fill="#CF91D8"/>
<circle cx="596" cy="274" r="6" fill="#E58FB1"/>
<rect x="624" y="232" width="82" height="30" rx="8" fill="#FEEFF6"/>
<rect x="110" y="250" width="66" height="30" rx="8" fill="#EDF6FF"/>
<rect x="351" y="98" width="101" height="30" rx="8" fill="#FCEFFC"/>
<path d="M129.458 270H131.614V262.188H134.596V260.2H126.476V262.188H129.458V270ZM138.11 270.168C139.468 270.168 140.476 269.636 141.176 268.768L139.958 267.69C139.37 268.236 138.852 268.46 138.138 268.46C137.186 268.46 136.514 267.956 136.304 266.99H141.526C141.54 266.794 141.554 266.598 141.554 266.43C141.554 264.302 140.406 262.356 137.9 262.356C135.716 262.356 134.19 264.12 134.19 266.262V266.29C134.19 268.586 135.856 270.168 138.11 270.168ZM136.276 265.66C136.444 264.694 137.018 264.064 137.9 264.064C138.796 264.064 139.356 264.708 139.482 265.66H136.276ZM146.682 270.168C148.18 270.168 149.02 269.594 149.748 268.796L148.502 267.536C147.984 268.026 147.494 268.334 146.78 268.334C145.618 268.334 144.876 267.41 144.876 266.262V266.234C144.876 265.128 145.632 264.19 146.696 264.19C147.452 264.19 147.928 264.512 148.404 265.016L149.706 263.616C149.006 262.832 148.124 262.356 146.71 262.356C144.414 262.356 142.776 264.12 142.776 266.262V266.29C142.776 268.432 144.428 270.168 146.682 270.168ZM151.138 270H153.266V265.814C153.266 264.806 153.784 264.288 154.596 264.288C155.408 264.288 155.884 264.806 155.884 265.814V270H158.012V265.142C158.012 263.42 157.074 262.356 155.464 262.356C154.386 262.356 153.756 262.93 153.266 263.56V259.78H151.138V270Z" fill="#006ADC"/>
<path d="M642.175 252H645.997C649.077 252 651.205 249.858 651.205 247.1V247.072C651.205 244.314 649.077 242.2 645.997 242.2H642.175V252ZM645.997 244.146C647.761 244.146 648.951 245.364 648.951 247.1V247.128C648.951 248.864 647.761 250.054 645.997 250.054H644.331V244.146H645.997ZM656.458 252.168C657.816 252.168 658.824 251.636 659.524 250.768L658.306 249.69C657.718 250.236 657.2 250.46 656.486 250.46C655.534 250.46 654.862 249.956 654.652 248.99H659.874C659.888 248.794 659.902 248.598 659.902 248.43C659.902 246.302 658.754 244.356 656.248 244.356C654.064 244.356 652.538 246.12 652.538 248.262V248.29C652.538 250.586 654.204 252.168 656.458 252.168ZM654.624 247.66C654.792 246.694 655.366 246.064 656.248 246.064C657.144 246.064 657.704 246.708 657.83 247.66H654.624ZM664.12 252.14C665.744 252.14 666.99 251.384 666.99 249.718V249.69C666.99 248.318 665.772 247.814 664.722 247.464C663.91 247.184 663.196 246.988 663.196 246.568V246.54C663.196 246.246 663.462 246.022 663.98 246.022C664.526 246.022 665.268 246.288 666.01 246.722L666.822 245.252C666.01 244.706 664.974 244.384 664.022 244.384C662.51 244.384 661.278 245.238 661.278 246.764V246.792C661.278 248.248 662.468 248.738 663.518 249.046C664.344 249.298 665.072 249.452 665.072 249.914V249.942C665.072 250.278 664.792 250.502 664.176 250.502C663.476 250.502 662.622 250.194 661.81 249.606L660.9 251.006C661.894 251.79 663.07 252.14 664.12 252.14ZM668.557 243.67H670.797V241.78H668.557V243.67ZM668.613 252H670.741V244.496H668.613V252ZM676.1 254.268C677.556 254.268 678.634 253.96 679.334 253.26C679.964 252.63 680.286 251.65 680.286 250.306V244.496H678.158V245.476C677.584 244.846 676.898 244.356 675.736 244.356C674.014 244.356 672.404 245.616 672.404 247.856V247.884C672.404 250.11 673.986 251.384 675.736 251.384C676.87 251.384 677.556 250.922 678.186 250.166V250.53C678.186 251.874 677.5 252.574 676.044 252.574C675.05 252.574 674.28 252.322 673.51 251.888L672.782 253.484C673.734 253.988 674.882 254.268 676.1 254.268ZM676.352 249.62C675.316 249.62 674.532 248.92 674.532 247.884V247.856C674.532 246.834 675.316 246.12 676.352 246.12C677.388 246.12 678.186 246.834 678.186 247.856V247.884C678.186 248.906 677.388 249.62 676.352 249.62ZM682.187 252H684.315V247.814C684.315 246.806 684.833 246.288 685.645 246.288C686.457 246.288 686.933 246.806 686.933 247.814V252H689.061V247.142C689.061 245.42 688.123 244.356 686.513 244.356C685.435 244.356 684.805 244.93 684.315 245.56V244.496H682.187V252Z" fill="#D31E66"/>
<path d="M370.766 118.07H372.642L374.854 111.658L377.066 118.07H378.942L382.288 108.2H380.034L378.004 114.836L375.806 108.172H373.958L371.76 114.836L369.73 108.2H367.42L370.766 118.07ZM386.427 118.168C388.765 118.168 390.501 116.418 390.501 114.262V114.234C390.501 112.078 388.779 110.356 386.455 110.356C384.117 110.356 382.381 112.106 382.381 114.262V114.29C382.381 116.446 384.103 118.168 386.427 118.168ZM386.455 116.334C385.279 116.334 384.481 115.368 384.481 114.262V114.234C384.481 113.128 385.209 112.19 386.427 112.19C387.603 112.19 388.401 113.156 388.401 114.262V114.29C388.401 115.396 387.673 116.334 386.455 116.334ZM392.042 118H394.17V115.228C394.17 113.436 395.038 112.582 396.452 112.582H396.564V110.356C395.304 110.3 394.604 110.972 394.17 112.008V110.496H392.042V118ZM397.893 118H400.021V115.718L400.777 114.92L402.695 118H405.159L402.205 113.45L405.061 110.496H402.513L400.021 113.226V107.78H397.893V118ZM406.543 118H408.671V112.316H410.365V110.58H408.643V110.286C408.643 109.726 408.923 109.474 409.413 109.474C409.777 109.474 410.071 109.544 410.379 109.656V107.892C409.987 107.766 409.539 107.682 408.867 107.682C408.111 107.682 407.537 107.878 407.145 108.27C406.753 108.662 406.543 109.264 406.543 110.09V110.566H405.661V112.316H406.543V118ZM411.625 118H413.753V107.78H411.625V118ZM419.431 118.168C421.769 118.168 423.505 116.418 423.505 114.262V114.234C423.505 112.078 421.783 110.356 419.459 110.356C417.121 110.356 415.385 112.106 415.385 114.262V114.29C415.385 116.446 417.107 118.168 419.431 118.168ZM419.459 116.334C418.283 116.334 417.485 115.368 417.485 114.262V114.234C417.485 113.128 418.213 112.19 419.431 112.19C420.607 112.19 421.405 113.156 421.405 114.262V114.29C421.405 115.396 420.677 116.334 419.459 116.334ZM426.384 118.056H428.288L429.758 113.45L431.2 118.056H433.118L435.456 110.496H433.342L432.11 115.06L430.682 110.468H428.848L427.434 115.046L426.23 110.496H424.074L426.384 118.056Z" fill="#9C2BAD"/>
<path d="M189.49 274.483L197.568 290.567C197.687 290.804 197.464 291.067 197.211 290.988L180.003 285.632C179.741 285.551 179.717 285.191 179.964 285.074L186.51 281.991C186.587 281.955 186.644 281.889 186.669 281.809L188.935 274.528C189.015 274.271 189.369 274.242 189.49 274.483Z" fill="#006ADC"/>
<path fill-rule="evenodd" clip-rule="evenodd" d="M196.91 290.371L189.265 275.15L187.146 281.957C187.08 282.171 186.926 282.347 186.723 282.443L186.51 281.991L186.723 282.443L180.642 285.307L196.91 290.371ZM198.015 290.343C198.332 290.973 197.736 291.675 197.062 291.466L179.854 286.109C179.157 285.892 179.091 284.933 179.751 284.622L186.217 281.576L188.457 274.38C188.671 273.692 189.613 273.615 189.936 274.258L189.489 274.483L189.936 274.258L198.015 290.343Z" fill="#006ADC"/>
<path d="M605.439 257.25L597.36 273.334C597.242 273.571 597.465 273.834 597.718 273.756L614.926 268.399C615.187 268.318 615.212 267.958 614.965 267.841L608.418 264.758C608.342 264.722 608.285 264.656 608.26 264.576L605.994 257.295C605.913 257.038 605.56 257.009 605.439 257.25Z" fill="#D31E66"/>
<path fill-rule="evenodd" clip-rule="evenodd" d="M598.019 273.138L605.664 257.917L607.783 264.724C607.849 264.938 608.003 265.115 608.206 265.21L608.419 264.758L608.206 265.21L614.287 268.074L598.019 273.138ZM596.914 273.11C596.597 273.741 597.193 274.443 597.867 274.233L615.075 268.876C615.772 268.66 615.838 267.7 615.178 267.389L608.711 264.343L606.471 257.147C606.257 256.459 605.316 256.382 604.993 257.025L605.439 257.25L604.993 257.025L596.914 273.11Z" fill="#D31E66"/>
<path d="M394.451 138.846L401.941 155.213C402.051 155.453 402.396 155.444 402.493 155.198L409.084 138.424C409.184 138.169 408.919 137.924 408.673 138.044L402.171 141.221C402.096 141.257 402.008 141.261 401.93 141.23L394.834 138.442C394.582 138.343 394.339 138.6 394.451 138.846Z" fill="#9C2BAD"/>
<path fill-rule="evenodd" clip-rule="evenodd" d="M402.2 154.577L395.112 139.088L401.747 141.696C401.956 141.778 402.19 141.768 402.391 141.67L402.172 141.221L402.391 141.67L408.431 138.719L402.2 154.577ZM401.486 155.421C401.78 156.063 402.7 156.037 402.958 155.381L409.55 138.607C409.816 137.928 409.109 137.275 408.454 137.595L402.031 140.733L395.017 137.976C394.347 137.713 393.697 138.399 393.996 139.054L394.451 138.846L393.996 139.054L401.486 155.421Z" fill="#9C2BAD"/>
</svg>
