<svg width="35" height="35" viewBox="0 0 35 35" fill="none" xmlns="http://www.w3.org/2000/svg">
<g clip-path="url(#clip0_1437_1416)">
<path d="M15.9167 14.3333H19.0833V13.1458C19.0833 12.5978 19.2458 12.0621 19.5503 11.6064C19.8548 11.1508 20.2875 10.7956 20.7938 10.5859C21.3001 10.3762 21.8572 10.3213 22.3947 10.4282C22.9322 10.5352 23.4259 10.7991 23.8134 11.1866C24.201 11.5741 24.4648 12.0678 24.5718 12.6053C24.6787 13.1428 24.6238 13.6999 24.4141 14.2062C24.2044 14.7125 23.8492 15.1452 23.3936 15.4497C22.9379 15.7542 22.4022 15.9167 21.8542 15.9167H20.6667V19.0833H21.8542C22.4022 19.0833 22.9379 19.2458 23.3936 19.5503C23.8492 19.8548 24.2044 20.2875 24.4141 20.7938C24.6238 21.3001 24.6787 21.8572 24.5718 22.3947C24.4648 22.9322 24.201 23.4259 23.8134 23.8134C23.4259 24.201 22.9322 24.4648 22.3947 24.5718C21.8572 24.6787 21.3001 24.6238 20.7938 24.4141C20.2875 24.2044 19.8548 23.8492 19.5503 23.3936C19.2458 22.9379 19.0833 22.4022 19.0833 21.8542V20.6667H15.9167V21.8542C15.9167 22.4022 15.7542 22.9379 15.4497 23.3936C15.1452 23.8492 14.7125 24.2044 14.2062 24.4141C13.6999 24.6238 13.1428 24.6787 12.6053 24.5718C12.0678 24.4648 11.5741 24.201 11.1866 23.8134C10.7991 23.4259 10.5352 22.9322 10.4282 22.3947C10.3213 21.8572 10.3762 21.3001 10.5859 20.7938C10.7956 20.2875 11.1508 19.8548 11.6064 19.5503C12.0621 19.2458 12.5978 19.0833 13.1458 19.0833H14.3333V15.9167H13.1458C12.5978 15.9167 12.0621 15.7542 11.6064 15.4497C11.1508 15.1452 10.7956 14.7125 10.5859 14.2062C10.3762 13.6999 10.3213 13.1428 10.4282 12.6053C10.5352 12.0678 10.7991 11.5741 11.1866 11.1866C11.5741 10.7991 12.0678 10.5352 12.6053 10.4282C13.1428 10.3213 13.6999 10.3762 14.2062 10.5859C14.7125 10.7956 15.1452 11.1508 15.4497 11.6064C15.7542 12.0621 15.9167 12.5978 15.9167 13.1458V14.3333ZM14.3333 14.3333V13.1458C14.3333 12.911 14.2637 12.6814 14.1332 12.4861C14.0027 12.2908 13.8173 12.1386 13.6003 12.0487C13.3833 11.9588 13.1445 11.9353 12.9142 11.9812C12.6838 12.027 12.4722 12.1401 12.3061 12.3061C12.1401 12.4722 12.027 12.6838 11.9812 12.9142C11.9353 13.1445 11.9588 13.3833 12.0487 13.6003C12.1386 13.8173 12.2908 14.0027 12.4861 14.1332C12.6814 14.2637 12.911 14.3333 13.1458 14.3333H14.3333ZM14.3333 20.6667H13.1458C12.911 20.6667 12.6814 20.7363 12.4861 20.8668C12.2908 20.9973 12.1386 21.1827 12.0487 21.3997C11.9588 21.6167 11.9353 21.8555 11.9812 22.0858C12.027 22.3162 12.1401 22.5278 12.3061 22.6939C12.4722 22.8599 12.6838 22.973 12.9142 23.0189C13.1445 23.0647 13.3833 23.0412 13.6003 22.9513C13.8173 22.8614 14.0027 22.7092 14.1332 22.5139C14.2637 22.3186 14.3333 22.089 14.3333 21.8542V20.6667ZM20.6667 14.3333H21.8542C22.089 14.3333 22.3186 14.2637 22.5139 14.1332C22.7092 14.0027 22.8614 13.8173 22.9513 13.6003C23.0412 13.3833 23.0647 13.1445 23.0189 12.9142C22.973 12.6838 22.8599 12.4722 22.6939 12.3061C22.5278 12.1401 22.3162 12.027 22.0858 11.9812C21.8555 11.9353 21.6167 11.9588 21.3997 12.0487C21.1827 12.1386 20.9973 12.2908 20.8668 12.4861C20.7363 12.6814 20.6667 12.911 20.6667 13.1458V14.3333ZM20.6667 20.6667V21.8542C20.6667 22.089 20.7363 22.3186 20.8668 22.5139C20.9973 22.7092 21.1827 22.8614 21.3997 22.9513C21.6167 23.0412 21.8555 23.0647 22.0858 23.0189C22.3162 22.973 22.5278 22.8599 22.6939 22.6939C22.8599 22.5278 22.973 22.3162 23.0189 22.0858C23.0647 21.8555 23.0412 21.6167 22.9513 21.3997C22.8614 21.1827 22.7092 20.9973 22.5139 20.8668C22.3186 20.7363 22.089 20.6667 21.8542 20.6667H20.6667ZM15.9167 15.9167V19.0833H19.0833V15.9167H15.9167Z" fill="#8F8F8F"/>
</g>
<defs>
<clipPath id="clip0_1437_1416">
<rect width="19" height="19" fill="white" transform="translate(8 8)"/>
</clipPath>
</defs>
</svg>
