<svg width="35" height="35" viewBox="0 0 35 35" fill="none" xmlns="http://www.w3.org/2000/svg">
<rect width="35" height="35" rx="8" fill="url(#paint0_linear_1436_1477)"/>
<path d="M17.5131 9.5835C15.6258 9.58292 13.8002 10.2711 12.3645 11.5244C10.9289 12.7776 9.97745 14.5136 9.68126 16.4203C9.38507 18.327 9.76357 20.2792 10.7487 21.9259C11.7338 23.5726 13.261 24.8058 15.0555 25.4037H15.2471C15.3406 25.4096 15.4342 25.3952 15.5218 25.3613C15.6094 25.3274 15.6889 25.2748 15.7552 25.2071C15.8214 25.1393 15.8728 25.058 15.9059 24.9684C15.939 24.8788 15.9532 24.783 15.9474 24.6874V24.5455C15.9474 24.4306 15.9474 24.2751 15.9474 23.8089C15.9409 23.7646 15.9259 23.7221 15.9032 23.6838C15.8805 23.6455 15.8506 23.6122 15.8153 23.5858C15.7769 23.5541 15.732 23.5315 15.684 23.5198C15.636 23.5081 15.586 23.5076 15.5378 23.5183C13.7673 23.9102 13.3907 22.7749 13.3643 22.7006C13.1426 22.0999 12.7459 21.5833 12.228 21.2206C12.1969 21.1931 12.1638 21.1683 12.1289 21.1462C12.2056 21.104 12.2934 21.0874 12.3799 21.0989C12.546 21.1226 12.7032 21.1897 12.8363 21.294C12.9695 21.3982 13.074 21.5359 13.1397 21.6936C13.3952 22.1488 13.8134 22.4849 14.3063 22.6311C14.7991 22.7773 15.3282 22.7223 15.7822 22.4775C15.8309 22.4558 15.8738 22.4223 15.9072 22.3799C15.9405 22.3376 15.9634 22.2876 15.9738 22.2343C15.9991 21.9217 16.1299 21.6278 16.3438 21.403C16.3913 21.3599 16.4256 21.3037 16.4426 21.2411C16.4597 21.1786 16.4587 21.1123 16.4399 21.0502C16.4211 20.9882 16.3852 20.933 16.3365 20.8913C16.2878 20.8496 16.2284 20.8232 16.1654 20.8151C14.5997 20.6326 13.0009 20.0717 13.0009 17.3078C12.9877 16.6136 13.2361 15.9409 13.6946 15.4291C13.7368 15.3814 13.7648 15.3223 13.7754 15.2589C13.7859 15.1954 13.7785 15.1302 13.754 15.0709C13.5704 14.5462 13.5728 13.9722 13.7607 13.449C14.371 13.5597 14.9438 13.8271 15.4255 14.2262C15.4653 14.2549 15.5109 14.2741 15.5589 14.2823C15.607 14.2905 15.6562 14.2874 15.703 14.2735C16.2931 14.1097 16.9017 14.0257 17.5131 14.0234C18.1269 14.024 18.7378 14.108 19.3299 14.2735C19.3757 14.2864 19.4237 14.2889 19.4705 14.2807C19.5173 14.2725 19.5618 14.2539 19.6008 14.2262C20.0832 13.8283 20.6557 13.5611 21.2656 13.449C21.4454 13.9694 21.4454 14.537 21.2656 15.0574C21.2411 15.1167 21.2337 15.1819 21.2442 15.2453C21.2548 15.3088 21.2828 15.3678 21.325 15.4156C21.7788 15.9223 22.0268 16.5868 22.0187 17.274C22.0187 20.038 20.4134 20.5921 18.841 20.7746C18.7765 20.7814 18.7154 20.8076 18.6654 20.8497C18.6153 20.8918 18.5785 20.9481 18.5594 21.0115C18.5404 21.0749 18.5401 21.1427 18.5584 21.2063C18.5768 21.2699 18.613 21.3266 18.6626 21.3693C18.809 21.5238 18.9208 21.7089 18.9904 21.9119C19.06 22.1149 19.0856 22.331 19.0656 22.5451V24.6941C19.0624 24.7998 19.082 24.9049 19.1231 25.0018C19.1642 25.0988 19.2258 25.1853 19.3035 25.255C19.4023 25.3308 19.5172 25.3818 19.6387 25.4041C19.7603 25.4264 19.8853 25.4193 20.0038 25.3834C21.7862 24.7734 23.2989 23.5355 24.2717 21.8904C25.2446 20.2453 25.6144 18.3001 25.3152 16.402C25.016 14.5038 24.0672 12.7761 22.6381 11.5272C21.2091 10.2783 19.3927 9.58945 17.5131 9.5835V9.5835Z" fill="#FDFDFF" fill-opacity="0.931"/>
<defs>
<linearGradient id="paint0_linear_1436_1477" x1="13.8272" y1="39.0104" x2="7.89975" y2="8.80237" gradientUnits="userSpaceOnUse">
<stop stop-color="#32275F"/>
<stop offset="1" stop-color="#342961" stop-opacity="0.85"/>
</linearGradient>
</defs>
</svg>
