<svg width="35" height="35" viewBox="0 0 35 35" fill="none" xmlns="http://www.w3.org/2000/svg">
<rect width="35" height="35" rx="8" fill="url(#paint0_linear_1436_1467)"/>
<path d="M14.017 15.125H11.4837C11.3088 15.125 11.167 15.2642 11.167 15.436V23.5223C11.167 23.6941 11.3088 23.8333 11.4837 23.8333H14.017C14.1919 23.8333 14.3337 23.6941 14.3337 23.5223V15.436C14.3337 15.2642 14.1919 15.125 14.017 15.125Z" fill="#FDFDFF" fill-opacity="0.931"/>
<path d="M12.7503 14.3332C13.6248 14.3332 14.3337 13.6243 14.3337 12.7498C14.3337 11.8754 13.6248 11.1665 12.7503 11.1665C11.8759 11.1665 11.167 11.8754 11.167 12.7498C11.167 13.6243 11.8759 14.3332 12.7503 14.3332Z" fill="#FDFDFF" fill-opacity="0.931"/>
<path d="M21.7022 23.8333H23.5292C23.6099 23.8333 23.6874 23.8017 23.7445 23.7454C23.8016 23.6891 23.8337 23.6127 23.8337 23.5331V18.4893C23.8337 16.2255 22.5365 15.1267 20.7218 15.1267C20.3639 15.1138 20.0071 15.175 19.6746 15.3063C19.3421 15.4377 19.0412 15.6362 18.7914 15.8893C18.758 15.9273 18.7136 15.9543 18.6642 15.9667C18.6147 15.9791 18.5627 15.9763 18.5149 15.9587C18.4671 15.941 18.426 15.9094 18.3971 15.868C18.3681 15.8266 18.3527 15.7774 18.3529 15.7271C18.3529 15.6475 18.3208 15.5712 18.2637 15.5149C18.2066 15.4585 18.1292 15.4269 18.0484 15.4269H16.2215C16.1407 15.4269 16.0633 15.4585 16.0062 15.5149C15.9491 15.5712 15.917 15.6475 15.917 15.7271V23.5331C15.917 23.6127 15.9491 23.6891 16.0062 23.7454C16.0633 23.8017 16.1407 23.8333 16.2215 23.8333H18.0484C18.1292 23.8333 18.2066 23.8017 18.2637 23.7454C18.3208 23.6891 18.3529 23.6127 18.3529 23.5331V19.0297C18.3529 18.6315 18.5133 18.2497 18.7988 17.9682C19.0843 17.6867 19.4716 17.5285 19.8753 17.5285C20.2791 17.5285 20.6663 17.6867 20.9519 17.9682C21.2374 18.2497 21.3978 18.6315 21.3978 19.0297V23.5331C21.3978 23.6127 21.4298 23.6891 21.4869 23.7454C21.544 23.8017 21.6215 23.8333 21.7022 23.8333Z" fill="#FDFDFF" fill-opacity="0.931"/>
<defs>
<linearGradient id="paint0_linear_1436_1467" x1="13.8272" y1="39.0104" x2="7.89975" y2="8.80237" gradientUnits="userSpaceOnUse">
<stop stop-color="#32275F"/>
<stop offset="1" stop-color="#342961" stop-opacity="0.85"/>
</linearGradient>
</defs>
</svg>
