<svg width="35" height="35" viewBox="0 0 35 35" fill="none" xmlns="http://www.w3.org/2000/svg">
<rect width="35" height="35" rx="8" fill="url(#paint0_linear_1436_1407)"/>
<path d="M20.6667 17.4999L17.5 11.9583L14.3333 17.4999L10.375 11.9583L11.1667 22.2499H23.8333L24.625 11.9583L20.6667 17.4999Z" fill="#F0EEFF" fill-opacity="0.477"/>
<path fill-rule="evenodd" clip-rule="evenodd" d="M25.0205 24.625H9.97884C9.75717 24.625 9.58301 24.4508 9.58301 24.2292V22.6458C9.58301 22.4242 9.75717 22.25 9.97884 22.25H25.0205C25.2422 22.25 25.4163 22.4242 25.4163 22.6458V24.2292C25.4163 24.4508 25.2422 24.625 25.0205 24.625Z" fill="#FDFDFF" fill-opacity="0.931"/>
<path d="M10.3747 11.9583C10.8119 11.9583 11.1663 11.6039 11.1663 11.1667C11.1663 10.7294 10.8119 10.375 10.3747 10.375C9.93745 10.375 9.58301 10.7294 9.58301 11.1667C9.58301 11.6039 9.93745 11.9583 10.3747 11.9583Z" fill="#F7F5FF" fill-opacity="0.615"/>
<path d="M24.6247 11.9583C25.0619 11.9583 25.4163 11.6039 25.4163 11.1667C25.4163 10.7294 25.0619 10.375 24.6247 10.375C24.1874 10.375 23.833 10.7294 23.833 11.1667C23.833 11.6039 24.1874 11.9583 24.6247 11.9583Z" fill="#F7F5FF" fill-opacity="0.615"/>
<path d="M17.4997 11.9583C17.9369 11.9583 18.2913 11.6039 18.2913 11.1667C18.2913 10.7294 17.9369 10.375 17.4997 10.375C17.0624 10.375 16.708 10.7294 16.708 11.1667C16.708 11.6039 17.0624 11.9583 17.4997 11.9583Z" fill="#F7F5FF" fill-opacity="0.615"/>
<defs>
<linearGradient id="paint0_linear_1436_1407" x1="13.8272" y1="39.0104" x2="7.89975" y2="8.80237" gradientUnits="userSpaceOnUse">
<stop stop-color="#32275F"/>
<stop offset="1" stop-color="#342961" stop-opacity="0.85"/>
</linearGradient>
</defs>
</svg>
