<svg width="35" height="35" viewBox="0 0 35 35" fill="none" xmlns="http://www.w3.org/2000/svg">
<rect width="35" height="35" rx="8" fill="url(#paint0_linear_1436_1463)"/>
<path d="M25.4164 12.6628C24.8306 12.9161 24.1973 13.0823 23.5481 13.1694C24.221 12.7736 24.7356 12.1482 24.9731 11.404C24.3477 11.7761 23.651 12.0294 22.9148 12.1798C22.321 11.5544 21.4739 11.1665 20.5477 11.1665C18.7506 11.1665 17.3019 12.5994 17.3019 14.3648C17.3019 14.6182 17.3256 14.8636 17.3731 15.0932C14.6814 14.9586 12.2906 13.6919 10.6835 11.7523C10.4064 12.2273 10.2402 12.7736 10.2402 13.3673C10.2402 14.4757 10.8181 15.4573 11.681 16.0194C11.1585 16.0115 10.6439 15.8611 10.2164 15.6236V15.6553C10.2164 17.2069 11.3406 18.4973 12.8131 18.7982C12.5519 18.8694 12.2589 18.9011 11.9581 18.9011C11.7523 18.9011 11.5385 18.8932 11.3406 18.8457C11.7602 20.1123 12.9556 21.0465 14.3727 21.0703C13.2723 21.9253 11.8631 22.4319 10.351 22.4319C10.0819 22.4319 9.82853 22.4161 9.5752 22.3844C11.0239 23.3107 12.726 23.8332 14.5627 23.8332C20.5398 23.8332 23.8014 18.9644 23.8014 14.7369C23.8014 14.5944 23.7935 14.4598 23.7856 14.3253C24.4348 13.874 24.9731 13.3119 25.4164 12.6628Z" fill="#FDFDFF" fill-opacity="0.931"/>
<defs>
<linearGradient id="paint0_linear_1436_1463" x1="13.8272" y1="39.0104" x2="7.89975" y2="8.80237" gradientUnits="userSpaceOnUse">
<stop stop-color="#32275F"/>
<stop offset="1" stop-color="#342961" stop-opacity="0.85"/>
</linearGradient>
</defs>
</svg>
